STARTFONT 2.1
COMMENT
COMMENT Converted from OpenType font "avar_bl.otf" by "otf2bdf 3.0".
COMMENT
FONT -FreeType-Avara Black-Bold-R-Normal--38-380-72-72-P-238-ISO10646-1
SIZE 38 72 72
FONTBOUNDINGBOX 66 55 -17 -12
STARTPROPERTIES 19
FOUNDRY "FreeType"
FAMILY_NAME "Avara Black"
WEIGHT_NAME "Bold"
SLANT "R"
SETWIDTH_NAME "Normal"
ADD_STYLE_NAME ""
PIXEL_SIZE 38
POINT_SIZE 380
RESOLUTION_X 72
RESOLUTION_Y 72
SPACING "P"
AVERAGE_WIDTH 238
CHARSET_REGISTRY "ISO10646"
CHARSET_ENCODING "1"
FONT_ASCENT 31
FONT_DESCENT 12
COPYRIGHT "Created by Raphael Bastide with FontForge 2.0 (http://fontforge.sf.net). Edited by Wei Huang and Lucas Le Bihan"
_OTF_FONTFILE "avar_bl.otf"
_OTF_PSNAME "Avara-Black"
ENDPROPERTIES
CHARS 234
STARTCHAR 0020
ENCODING 32
SWIDTH 368 0
DWIDTH 14 0
BBX 0 0 0 0
BITMAP
ENDCHAR
STARTCHAR 0021
ENCODING 33
SWIDTH 315 0
DWIDTH 12 0
BBX 9 30 2 0
BITMAP
7F00
FF80
FF80
FF80
FF80
FF80
FF80
FF80
FF80
FF00
FF00
FF00
7E00
7E00
7C00
7C00
3800
3800
3800
1000
0000
3800
3C00
7F00
FF80
FF80
FF00
FE00
3E00
1C00
ENDCHAR
STARTCHAR 0022
ENCODING 34
SWIDTH 447 0
DWIDTH 17 0
BBX 17 11 0 21
BITMAP
180C00
3C1E00
7E3F00
FF7F80
FF7F80
FE7F00
7E3F00
7C3E00
3C1E00
381C00
180C00
ENDCHAR
STARTCHAR 0023
ENCODING 35
SWIDTH 684 0
DWIDTH 26 0
BBX 20 24 3 3
BITMAP
01E1C0
01C1C0
01C1C0
01C380
03C380
038380
3FFFF0
3FFFF0
3FFFF0
070700
070700
070E00
0F0E00
0E0E00
0E0E00
FFFFC0
FFFFC0
FFFFC0
1C1C00
1C3800
3C3800
383800
383800
387000
ENDCHAR
STARTCHAR 0024
ENCODING 36
SWIDTH 605 0
DWIDTH 23 0
BBX 21 36 2 -3
BITMAP
004000
004000
0FF0C0
1FFFC0
7FFFC0
7F4FC0
7E47C0
FE43E0
FE41E0
FF40E0
FFC060
FFE020
FFF000
7FFC00
7FFE00
3FFF00
1FFFC0
0FFFE0
03FFE0
01FFF0
00FFF0
807FF0
C05FF0
E04FF0
E047F8
F041F8
F841F0
F841F0
FC41E0
7E43E0
7FFFC0
7FFFC0
40FE00
004000
004000
004000
ENDCHAR
STARTCHAR 0025
ENCODING 37
SWIDTH 947 0
DWIDTH 36 0
BBX 31 33 2 -1
BITMAP
00002000
00006000
0FE06000
3EF06000
3C784000
7C7C4000
7C7C4000
FC7CC000
FC7EC000
FC7EC000
FC7C8000
FC7C8000
FC798000
7C798000
7C798000
7CF101E0
3FF10FF0
1F811E78
00031C7C
00033C7C
00033C7C
00027C7E
00027C7E
00067C7E
0006FC7E
00067C7E
00047C7C
00047C7C
00043C78
000C3E78
000C1FF0
000C0F80
00080000
ENDCHAR
STARTCHAR 0026
ENCODING 38
SWIDTH 868 0
DWIDTH 33 0
BBX 31 31 2 -2
BITMAP
007FC000
01FFE000
03FFF800
07F3F800
07F1FC00
0FF1FC00
0FF1FC00
0FF1FC00
0FF1FC00
0FF1FC00
0FF1F800
07F9F800
07FFE000
07FE3FFE
0FFF1FFC
3FFF0FF8
7E7F87F0
FE3FC7E0
FE1FE7C0
FE1FF780
FE0FF700
FE07FE00
FF03FC00
FF01FE00
FF00FF00
FF807F80
7FC73FC0
3FFF3FC0
1FFE1FE0
07FC03F0
000000F0
ENDCHAR
STARTCHAR 0027
ENCODING 39
SWIDTH 210 0
DWIDTH 8 0
BBX 8 11 0 21
BITMAP
18
3C
7E
FF
FF
FE
7E
7C
3C
38
18
ENDCHAR
STARTCHAR 0028
ENCODING 40
SWIDTH 447 0
DWIDTH 17 0
BBX 13 36 2 -6
BITMAP
0010
0078
00E0
01C0
0380
0780
0F80
1F00
3F00
3F00
7F00
7E00
7E00
FE00
FE00
FE00
FE00
FE00
FE00
FE00
FE00
FE00
FE00
7E00
7E00
7E00
7F00
3F00
1F00
1F00
0F80
0780
03C0
01C0
00F0
0038
ENDCHAR
STARTCHAR 0029
ENCODING 41
SWIDTH 447 0
DWIDTH 17 0
BBX 13 36 2 -6
BITMAP
4000
F000
7800
1C00
1E00
0F00
0F80
0FC0
07C0
07E0
07F0
07F0
03F0
03F0
03F0
03F8
03F8
03F8
03F8
03F8
03F8
03F8
03F0
03F0
03F0
07F0
07E0
07E0
07C0
0F80
0F80
0F00
1E00
3C00
F800
E000
ENDCHAR
STARTCHAR 002A
ENCODING 42
SWIDTH 447 0
DWIDTH 17 0
BBX 13 14 2 21
BITMAP
1F80
1FC0
1F80
CF90
E778
FEF8
FDF8
FDF8
F778
EF38
0F80
1FC0
1FC0
0F80
ENDCHAR
STARTCHAR 002B
ENCODING 43
SWIDTH 605 0
DWIDTH 23 0
BBX 21 21 0 2
BITMAP
007000
007000
007000
007000
007000
007000
007000
007000
007000
FFFFF8
FFFFF8
FFFFF8
007000
007000
007000
007000
007000
007000
007000
007000
007000
ENDCHAR
STARTCHAR 002C
ENCODING 44
SWIDTH 315 0
DWIDTH 12 0
BBX 11 14 0 -5
BITMAP
0E00
1F00
1FC0
3FE0
3FE0
3FC0
3FC0
0F80
0780
0300
0700
FE00
FE00
FC00
ENDCHAR
STARTCHAR 002D
ENCODING 45
SWIDTH 315 0
DWIDTH 12 0
BBX 9 3 2 9
BITMAP
FF80
FF80
FF80
ENDCHAR
STARTCHAR 002E
ENCODING 46
SWIDTH 315 0
DWIDTH 12 0
BBX 9 9 2 0
BITMAP
3800
7C00
7F00
FF80
FF80
FF00
FE00
3E00
1C00
ENDCHAR
STARTCHAR 002F
ENCODING 47
SWIDTH 289 0
DWIDTH 11 0
BBX 11 32 0 -3
BITMAP
01E0
01C0
01C0
01C0
01C0
0380
0380
0380
0380
0700
0700
0700
0700
0E00
0E00
0E00
0E00
1E00
1C00
1C00
1C00
3C00
3800
3800
3800
3800
7000
7000
7000
7000
E000
E000
ENDCHAR
STARTCHAR 0030
ENCODING 48
SWIDTH 789 0
DWIDTH 30 0
BBX 27 30 2 0
BITMAP
007F8000
01FFE000
07FFF800
0FF3FE00
1FC0FE00
3FC07F00
3FC07F80
7F807F80
7F803FC0
7F803FC0
FF803FC0
FF803FC0
FF803FC0
FF803FE0
FF803FE0
FF803FE0
FF803FE0
FF803FC0
FF803FC0
FF803FC0
7F803FC0
7F803FC0
7F807F80
7F807F80
3FC07F00
1FC0FF00
1FE1FE00
0FFFFC00
03FFF000
00FFC000
ENDCHAR
STARTCHAR 0031
ENCODING 49
SWIDTH 447 0
DWIDTH 17 0
BBX 13 30 2 1
BITMAP
03C0
0FC0
1FC0
1FC0
7FC0
FFC0
FFC0
1FC0
1FC0
1FC0
1FC0
1FC0
1FC0
1FC0
1FC0
1FC0
1FC0
1FC0
1FC0
1FC0
1FC0
1FC0
1FC0
1FC0
1FC0
1FC0
1FC0
3FE0
7FF0
FFF8
ENDCHAR
STARTCHAR 0032
ENCODING 50
SWIDTH 710 0
DWIDTH 27 0
BBX 24 32 2 -1
BITMAP
01F800
07FE00
0FFF80
3FBFE0
3F0FF0
7E07F8
FE03F8
FE03FC
FE01FC
7E01FC
7E01FC
3E01FC
3E01FC
0003FC
0003F8
0003F8
0007F0
0007F0
000FE0
001FC0
003F83
007E07
01FC07
03F00E
0F800E
1FE01E
7FFC3E
FFFFBE
FFFFFE
FFFFFE
FFFFFE
000004
ENDCHAR
STARTCHAR 0033
ENCODING 51
SWIDTH 710 0
DWIDTH 27 0
BBX 24 30 2 0
BITMAP
00FF00
0FFFE0
1FFFF0
1E1FF8
3C07F8
7C03FC
7C01FC
3C01FC
3C01FC
0003FC
0003F8
0037F0
003FC0
007F00
007FE0
0073F8
0001FC
0000FE
3E00FF
3E00FF
7E00FF
FE00FF
FE00FF
FE01FE
7E01FE
7E01FC
3F87F8
1FFFF0
07FFC0
01FF00
ENDCHAR
STARTCHAR 0034
ENCODING 52
SWIDTH 763 0
DWIDTH 29 0
BBX 27 30 0 0
BITMAP
00001F00
0001FF00
0003FF00
0007FF00
000FFF00
000F7F00
001F7F00
003E7F00
007E7F00
00FC7F00
01FC7F00
01F87F00
03F87F00
07F07F00
0FF07F00
1FE07F00
3FE07F00
3FC07F00
7FC07F00
FFFFFFE0
7FFFFFE0
3FFFFFE0
00007F00
00007F00
00007F00
00007F00
00007F00
0000FF80
0001FFC0
0003FFE0
ENDCHAR
STARTCHAR 0035
ENCODING 53
SWIDTH 710 0
DWIDTH 27 0
BBX 22 31 2 0
BITMAP
0FFFFC
0FFFFC
0FFFFC
1FFFFC
1FFFF8
1FFFF8
1E0000
1E0000
3C0000
3C0000
380000
38FF00
37FF80
3FFFE0
7F0FF8
7007F8
0003F8
0001FC
0001FC
3E01FC
3E01FC
7E01FC
FE01FC
FE03FC
FE03FC
7E03F8
7E07F0
3F0FF0
1FFFE0
07FF80
01FE00
ENDCHAR
STARTCHAR 0036
ENCODING 54
SWIDTH 710 0
DWIDTH 27 0
BBX 24 30 2 0
BITMAP
0003F8
00FFFC
01FFFE
03FEFE
0FF0FF
1FE0FE
3FC0FC
3FC0FC
7F80F8
7F0000
FF0000
FF3F80
FEFFE0
FEFFF8
FFFFF8
FFEFFC
FF83FE
FF01FE
FF00FF
FE00FF
FE00FF
FE00FF
FE00FF
7F00FE
7F01FE
3F81FC
3FC7F8
1FFFF0
07FFC0
01FF00
ENDCHAR
STARTCHAR 0037
ENCODING 55
SWIDTH 631 0
DWIDTH 24 0
BBX 25 30 2 0
BITMAP
FFFFFF80
FFFFFF80
FFFFFF00
FE000E00
FC003C00
FC007800
7C00F000
3C01E000
3C03E000
0007C000
000F8000
001F8000
003F0000
007F0000
007E0000
00FE0000
01FC0000
01FC0000
03FC0000
03F80000
07F80000
07F80000
07F80000
0FF80000
0FF80000
0FF00000
0FF00000
1FF00000
1FF00000
1FF00000
ENDCHAR
STARTCHAR 0038
ENCODING 56
SWIDTH 710 0
DWIDTH 27 0
BBX 24 30 2 0
BITMAP
01FF80
0FFFE0
1FFFF0
3FE7F8
7F81FC
7F81FC
7F81FC
7F81FC
7F83FC
3F83FC
1F87FC
0FDFF8
07FFF0
01FFC0
0FFFF0
3FFDF8
3FF1FC
7FC0FC
FF00FE
FE00FF
FE00FF
FE00FF
FE00FF
FF00FE
7F01FE
7F81FC
3FC7F8
1FFFF0
07FFC0
01FF00
ENDCHAR
STARTCHAR 0039
ENCODING 57
SWIDTH 710 0
DWIDTH 27 0
BBX 24 30 2 0
BITMAP
01FF00
07FFC0
1FFFF0
3FC7F8
7F81FC
7F01FC
FF00FE
FE00FE
FE00FF
FE00FF
FE00FF
FF00FF
FF01FF
7F83FF
7FEFFF
3FFFFF
1FFEFF
07FEFF
01FCFF
0001FE
0001FE
3E03FC
3E03FC
7E07F8
FE0FF0
FE0FE0
FE7FC0
7FFF00
7FFE00
3F8000
ENDCHAR
STARTCHAR 003A
ENCODING 58
SWIDTH 315 0
DWIDTH 12 0
BBX 9 23 2 0
BITMAP
3800
3C00
7F00
FF80
FF80
FF00
FE00
3E00
1C00
0000
0000
0000
0000
0000
3800
7E00
7F00
FF80
FF80
FF00
FE00
3E00
1C00
ENDCHAR
STARTCHAR 003B
ENCODING 59
SWIDTH 315 0
DWIDTH 12 0
BBX 11 28 0 -5
BITMAP
0E00
0F00
1FC0
3FE0
3FE0
3FC0
3F80
0F80
0700
0000
0000
0000
0000
0000
0E00
1F80
1FC0
3FE0
3FE0
3FC0
3FC0
0F80
0780
0300
0700
FE00
FE00
FC00
ENDCHAR
STARTCHAR 003C
ENCODING 60
SWIDTH 473 0
DWIDTH 18 0
BBX 14 21 3 2
BITMAP
0010
0038
0078
00F8
03F0
07C0
0F80
3E00
7C00
F800
E000
F000
FC00
3E00
1F00
0FC0
03E0
01F8
00FC
0038
0018
ENDCHAR
STARTCHAR 003D
ENCODING 61
SWIDTH 552 0
DWIDTH 21 0
BBX 18 9 2 8
BITMAP
FFFFC0
FFFFC0
FFFFC0
000000
000000
000000
FFFFC0
FFFFC0
FFFFC0
ENDCHAR
STARTCHAR 003E
ENCODING 62
SWIDTH 473 0
DWIDTH 18 0
BBX 13 21 2 2
BITMAP
4000
E000
F000
FC00
3E00
1F00
0FC0
03E0
01F0
0078
0038
0078
00F8
03E0
07C0
1F80
3E00
7C00
F800
E000
4000
ENDCHAR
STARTCHAR 003F
ENCODING 63
SWIDTH 605 0
DWIDTH 23 0
BBX 23 30 0 0
BITMAP
01FF00
07FFC0
1FFFF0
7FC7FC
7F83FC
FF01FE
FF01FE
FF01FE
7F01FE
1F01FC
0F03FC
0003F8
0007F0
001FF0
007FC0
00FE00
00E000
006000
003000
001000
000000
003800
003C00
007F00
00FF80
00FF80
00FF00
00FE00
003E00
001C00
ENDCHAR
STARTCHAR 0040
ENCODING 64
SWIDTH 947 0
DWIDTH 36 0
BBX 33 30 2 -4
BITMAP
0007E00000
001FFC0000
00FFFF0000
01F81FC000
03C003E000
078001F000
0F0000F800
1E00007C00
3C00003E00
7C00001E00
7800001F00
783FFC1F00
F83FFC0F00
F83FFC0F00
F83FFC0F00
F03FFC0F80
F03FFC0F80
F03FFC0F80
F03FFC1F00
F83FFC1E00
F83FFC3E00
F83FFC7C00
783FFC7800
78001CF800
3C001FF000
1E001FC000
0F001F8000
0780000000
01C0000000
00E0000000
ENDCHAR
STARTCHAR 0041
ENCODING 65
SWIDTH 868 0
DWIDTH 33 0
BBX 33 32 0 0
BITMAP
0000100000
0000700000
0001F80000
0003F80000
0003F80000
0007FC0000
0007FC0000
000FFC0000
000FFE0000
000EFE0000
001EFF0000
001CFF0000
003C7F0000
003C7F8000
00787F8000
00783F8000
00F03FC000
00F03FC000
00F01FE000
01E01FE000
01E01FE000
03FFFFF000
03FFFFF000
07FFFFF000
078007F800
078003F800
0F0003F800
0F0003FC00
1F0001FC00
3F0003FE00
7F8007FF00
FFC00FFF80
ENDCHAR
STARTCHAR 0042
ENCODING 66
SWIDTH 789 0
DWIDTH 30 0
BBX 29 31 0 0
BITMAP
FFFF0000
7FFFFC00
3FFFFF80
1FF1FF80
1FE07FC0
1FE03FC0
1FE01FE0
1FE01FE0
1FE01FE0
1FE01FC0
1FE03FC0
1FE07F80
1FE07F00
1FE3FC00
1FFFF800
1FFFFF80
1FE0FFC0
1FE03FE0
1FE01FE0
1FE00FF0
1FE00FF0
1FE007F8
1FE007F0
1FE007F0
1FE00FE0
1FE00FE0
1FE01FC0
1FF0FFC0
3FFFFF00
7FFFF800
FFFFE000
ENDCHAR
STARTCHAR 0043
ENCODING 67
SWIDTH 789 0
DWIDTH 30 0
BBX 28 31 2 0
BITMAP
001FE000
007FF800
01FFFE00
03FE3F80
07F80FC0
0FE007E0
1FE007E0
3FC007F0
7F8007F0
7F8007E0
7F8007E0
FF8007C0
FF800780
FF800000
FF800000
FF800000
FF800000
FF800000
FF800000
FF800000
FF800000
7F800000
7F800060
7FC000F0
3FE001F0
1FE001E0
0FF003C0
07FC1FC0
01FFFF00
007FFC00
001FF000
ENDCHAR
STARTCHAR 0044
ENCODING 68
SWIDTH 921 0
DWIDTH 35 0
BBX 31 30 2 0
BITMAP
FFFFE000
7FFFFF00
3FFFFF80
1FE07FC0
1FC01FE0
1FC00FF0
1FC007F8
1FC007FC
1FC003FC
1FC003FC
1FC003FC
1FC003FE
1FC003FE
1FC003FE
1FC003FE
1FC003FE
1FC003FE
1FC003FE
1FC003FE
1FC003FE
1FC003FC
1FC003FC
1FC003FC
1FC007F8
1FC007F0
1FC00FE0
1FE03FC0
3FFFFF80
7FFFFF00
FFFFF800
ENDCHAR
STARTCHAR 0045
ENCODING 69
SWIDTH 763 0
DWIDTH 29 0
BBX 25 32 2 -1
BITMAP
00003C00
FFFFFE00
7FFFFE00
3FFFFE00
1FE03E00
1FC01E00
1FC00E00
1FC00E00
1FC00700
1FC00300
1FC00800
1FC01800
1FC03800
1FE07800
1FF0F800
1FFFF800
1FFFF800
1FF0F800
1FE07800
1FC03800
1FC01880
1FC00980
1FC00180
1FC00380
1FC00780
1FC00780
1FC00F80
1FE00F00
3FFFFF00
7FFFFF00
FFFFFF00
00000300
ENDCHAR
STARTCHAR 0046
ENCODING 70
SWIDTH 684 0
DWIDTH 26 0
BBX 24 31 2 1
BITMAP
00003C
FFFFFE
7FFFFE
3FFFFE
1FE03E
1FC01E
1FC00E
1FC00E
1FC007
1FC003
1FC008
1FC018
1FC038
1FE078
1FF0F8
1FFFF8
1FFFF8
1FFFF8
1FE078
1FC038
1FC018
1FC008
1FC000
1FC000
1FC000
1FC000
1FC000
1FC000
3FC000
7FE000
FFF800
ENDCHAR
STARTCHAR 0047
ENCODING 71
SWIDTH 868 0
DWIDTH 33 0
BBX 31 31 2 0
BITMAP
001FE000
007FF800
01FFFE00
03FE3F80
07F80FC0
0FE007E0
1FE007E0
3FC007F0
7F8007F0
7F8007E0
7F8007E0
FF8007C0
FF800000
FF800000
FF800000
FF800000
FF800000
FF803FFE
FF801FFC
FF800FF8
7F8007F0
7F8007F0
7F8007F0
7FC007F0
3FE007E0
1FE007E0
0FF00FC0
07FC3F80
01FFFF00
007FFC00
001FF000
ENDCHAR
STARTCHAR 0048
ENCODING 72
SWIDTH 947 0
DWIDTH 36 0
BBX 32 30 2 0
BITMAP
FFF80FFF
7FF007FE
3FE003FC
1FC003FC
1FC003FC
1FC003FC
1FC003FC
1FC003FC
1FC003FC
1FC003FC
1FC003FC
1FC003FC
1FC003FC
1FE007FC
1FFFFFFC
1FFFFFFC
1FFFFFFC
1FE003FC
1FC003FC
1FC003FC
1FC003FC
1FC003FC
1FC003FC
1FC003FC
1FC003FC
1FC003FC
1FC003FC
3FC003FC
7FE007FE
FFF80FFF
ENDCHAR
STARTCHAR 0049
ENCODING 73
SWIDTH 447 0
DWIDTH 17 0
BBX 13 30 2 0
BITMAP
FFF8
7FF0
3FE0
1FC0
1FC0
1FC0
1FC0
1FC0
1FC0
1FC0
1FC0
1FC0
1FC0
1FC0
1FC0
1FC0
1FC0
1FC0
1FC0
1FC0
1FC0
1FC0
1FC0
1FC0
1FC0
1FC0
1FC0
3FC0
7FE0
FFF8
ENDCHAR
STARTCHAR 004A
ENCODING 74
SWIDTH 394 0
DWIDTH 15 0
BBX 16 35 -1 -5
BITMAP
1FFF
0FFE
07FC
03F8
03F8
03F8
03F8
03F8
03F8
03F8
03F8
03F8
03F8
03F8
03F8
03F8
03F8
03F8
03F8
03F8
03F8
03F8
03F8
03F8
03F8
03F8
07F8
07F0
0FE0
1FC0
3FC0
7F80
FE00
F800
4000
ENDCHAR
STARTCHAR 004B
ENCODING 75
SWIDTH 789 0
DWIDTH 30 0
BBX 28 31 2 -2
BITMAP
FFFBFFF0
7FF1FFE0
3FE0FFC0
1FC0FF00
1FC1FE00
1FC1FC00
1FC3F800
1FC3F000
1FC7E000
1FCFC000
1FCF8000
1FDE0000
1FDC0000
1FF80000
1FFFC000
1FDFF800
1FCFFC00
1FC7FC00
1FC3FE00
1FC1FE00
1FC1FF00
1FC0FF00
1FC0FF80
1FC07F80
1FC07FC0
1FC03FC0
1FC03FE0
3FE01FE0
7FF01FF0
FFF803F0
000000F0
ENDCHAR
STARTCHAR 004C
ENCODING 76
SWIDTH 684 0
DWIDTH 26 0
BBX 24 32 2 -2
BITMAP
FFF800
7FF000
3FE000
1FC000
1FC000
1FC000
1FC000
1FC000
1FC000
1FC000
1FC000
1FC000
1FC000
1FC000
1FC000
1FC000
1FC000
1FC000
1FC000
1FC000
1FC003
1FC007
1FC007
1FC00E
1FC01E
1FC01E
1FE03E
3FFFFE
7FFFFE
FFFFFE
00001E
000004
ENDCHAR
STARTCHAR 004D
ENCODING 77
SWIDTH 1052 0
DWIDTH 40 0
BBX 37 31 2 -2
BITMAP
FFF0001FF8
7FF0003FF0
3FF8003FE0
1FF8003FC0
1FF8007FC0
1FFC007FC0
1FFC007FC0
1FFC00FFC0
1FFE00FFC0
1DFE00DFC0
1DFE01DFC0
1CFF01DFC0
1CFF019FC0
1CFF839FC0
1C7F839FC0
1C7F831FC0
1C7FC71FC0
1C3FC71FC0
1E3FC61FC0
1E3FEE1FC0
1E1FEC1FC0
1E1FEC1FC0
1E1FFC1FC0
1E0FF81FC0
1E0FF81FC0
1E07F81FC0
1E07F01FC0
3F07F03FE0
7F83F07FF0
FFC3E0FFF8
0003C00000
ENDCHAR
STARTCHAR 004E
ENCODING 78
SWIDTH 868 0
DWIDTH 33 0
BBX 29 30 2 0
BITMAP
FFC00FF8
7FE007F0
3FF003E0
1FF003E0
1FF803E0
1FFC03E0
1FFC01E0
1FFE01E0
1FFE01E0
1DFF01E0
1DFF81E0
1CFF81E0
1C7FC1E0
1C7FC1E0
1C3FE1E0
1C3FF1E0
1C1FF1E0
1C0FF9E0
1C0FF9E0
1E07FCE0
1E07FEE0
1E03FEE0
1E01FFE0
1E01FFE0
1E00FFE0
1E00FFE0
1E007FE0
3F003FE0
7F803FE0
FFC01FE0
ENDCHAR
STARTCHAR 004F
ENCODING 79
SWIDTH 921 0
DWIDTH 35 0
BBX 31 30 2 0
BITMAP
001FF000
007FFC00
01FFFF00
07FC7FC0
0FF01FE0
1FE00FF0
3FC007F8
7FC007FC
7F8003FC
7F8003FC
FF8003FE
FF8003FE
FF8003FE
FF8003FE
FF8003FE
FF8003FE
FF8003FE
FF8003FE
FF8003FE
FF8003FE
7F8003FC
7F8003FC
7FC007FC
3FC007F8
1FE00FF0
0FF01FE0
07FC7FC0
01FFFF00
007FFC00
001FF000
ENDCHAR
STARTCHAR 0050
ENCODING 80
SWIDTH 763 0
DWIDTH 29 0
BBX 27 30 2 0
BITMAP
FFFFE000
7FFFFC00
3FFFFE00
1FE0FF00
1FC03F80
1FC03F80
1FC03FC0
1FC01FE0
1FC01FE0
1FC01FC0
1FC01FC0
1FC03F80
1FC03F80
1FC03F80
1FC0FF00
1FFFFE00
1FFFF800
1FC7C000
1FC00000
1FC00000
1FC00000
1FC00000
1FC00000
1FC00000
1FC00000
1FC00000
1FC00000
3FC00000
7FE00000
FFF80000
ENDCHAR
STARTCHAR 0051
ENCODING 81
SWIDTH 921 0
DWIDTH 35 0
BBX 33 38 2 -8
BITMAP
001FF00000
007FFC0000
01FFFF0000
07FC7FC000
0FF01FE000
1FE00FF000
3FC007F800
7FC007FC00
7F8003FC00
7F8003FC00
FF8003FE00
FF8003FE00
FF8003FE00
FF8003FE00
FF8003FE00
FF8003FE00
FF8003FE00
FF8003FE00
FF8003FE00
FF8003FE00
7F8003FC00
7F8003FC00
7FC007FC00
3FC007F800
1FE00FF000
0FF01FE000
07FC7FC000
01FFFF0000
007FFC0000
001FF00000
0000F00000
0000FC0000
00007FC000
00007FFF80
00003FFF80
00001FFE00
000007F800
000003E000
ENDCHAR
STARTCHAR 0052
ENCODING 82
SWIDTH 789 0
DWIDTH 30 0
BBX 28 31 2 -2
BITMAP
FFFFF000
7FFFFC00
3FFFFE00
1FE0FF00
1FC03F80
1FC03F80
1FC03FC0
1FC01FE0
1FC01FC0
1FC01FC0
1FC01FC0
1FC03F80
1FC03F80
1FC03F00
1FC0FF00
1FFFFC00
1FFFC000
1FCFC000
1FC3E000
1FC1FC00
1FC1FE00
1FC0FE00
1FC0FF00
1FC07F80
1FC07F80
1FC03FC0
1FC03FC0
3FE01FE0
7FF01FF0
FFF803F0
000000F0
ENDCHAR
STARTCHAR 0053
ENCODING 83
SWIDTH 631 0
DWIDTH 24 0
BBX 21 32 2 0
BITMAP
040040
0FF1C0
3FFFC0
7F8FC0
7F07C0
FE07C0
FE03E0
FE01E0
FF00E0
FF8060
FFC060
FFF000
7FF800
7FFC00
3FFF00
1FFF80
0FFFC0
07FFE0
01FFF0
00FFF0
807FF0
C01FF0
E00FF0
E007F8
F003F8
F801F0
F801F0
FC01E0
7E03E0
7FFFC0
7FFFC0
61FF00
ENDCHAR
STARTCHAR 0054
ENCODING 84
SWIDTH 763 0
DWIDTH 29 0
BBX 29 32 0 0
BITMAP
40000000
7C0001F0
7FFFFFF0
7FFFFFF0
7FFFFFF0
7F1FCFF0
781FC0F0
F01FC070
E01FC038
E01FC038
C01FC018
001FC000
001FC000
001FC000
001FC000
001FC000
001FC000
001FC000
001FC000
001FC000
001FC000
001FC000
001FC000
001FC000
001FC000
001FC000
001FC000
001FC000
001FC000
003FC000
007FE000
00FFF800
ENDCHAR
STARTCHAR 0055
ENCODING 85
SWIDTH 894 0
DWIDTH 34 0
BBX 31 30 2 0
BITMAP
FFF807FE
7FF003FC
3FE001F8
1FC000F0
1FC000F0
1FC000F0
1FC000F0
1FC000F0
1FC000F0
1FC000F0
1FC000F0
1FC000F0
1FC000F0
1FC000F0
1FC000F0
1FC000F0
1FC000F0
1FC000F0
1FC000F0
1FC000F0
1FC000F0
1FE000F0
1FE000F0
1FE001F0
0FF001E0
0FF803E0
07FE07C0
03FFFF80
01FFFF00
007FFC00
ENDCHAR
STARTCHAR 0056
ENCODING 86
SWIDTH 763 0
DWIDTH 29 0
BBX 32 32 -1 -2
BITMAP
FFFC07FF
7FF803FE
3FF001FC
1FF000FC
1FF001F8
1FF001F8
0FF801F0
0FF803F0
07F803E0
07FC03E0
07FC03E0
03FC07C0
03FE07C0
03FE0780
01FE0F80
01FF0F00
01FF0F00
00FF0E00
00FF9E00
007F9E00
007F9C00
007FFC00
003FF800
003FF800
003FF000
001FF000
001FE000
000FE000
000FE000
000FC000
00078000
00040000
ENDCHAR
STARTCHAR 0057
ENCODING 87
SWIDTH 1131 0
DWIDTH 43 0
BBX 45 32 -1 -2
BITMAP
FFFC00007FF8
7FF800003FF0
3FF003E01FE0
1FF01FE00FC0
1FF01FF00F80
1FF01FF01F80
0FF81FF01F80
0FF81FF01F00
0FF83FF81F00
07F83FF83F00
07FC3FF83E00
07FC3FF83E00
07FC37FC3C00
03FC33FC3C00
03FE73FC7C00
03FE73FC7800
01FE63FE7800
01FF61FE7000
01FF61FEF000
00FF61FEF000
00FF40FEE000
00FFC0FEE000
007FC0FFC000
007FC0FFC000
007FC07FC000
003F807F8000
003F807F8000
003F803F8000
001F803F0000
001F003F0000
001F003E0000
001800100000
ENDCHAR
STARTCHAR 0058
ENCODING 88
SWIDTH 789 0
DWIDTH 30 0
BBX 30 30 0 0
BITMAP
FFFE1FFC
7FFC0FF8
3FF807F0
1FF007E0
1FF807C0
0FFC0F80
07FC0F00
07FE1F00
03FE1E00
01FF1C00
00FFB800
00FFF000
007FE000
003FC000
001FE000
001FF000
000FF000
001FF800
001FFC00
003FFC00
0073FE00
00E1FF00
01E1FF80
03E0FF80
07C07FC0
07C07FE0
0F803FF0
1F803FF0
3FC07FF8
FFF0FFFC
ENDCHAR
STARTCHAR 0059
ENCODING 89
SWIDTH 763 0
DWIDTH 29 0
BBX 31 30 -1 0
BITMAP
FFFC07FE
7FF803FC
3FF001F8
1FF000F0
1FF001E0
0FF801E0
07FC03C0
07FC0380
03FE0780
01FE0700
01FF0E00
00FF0E00
007F9C00
007FD800
003FF800
001FF000
001FE000
000FE000
000FE000
000FE000
000FE000
000FE000
000FE000
000FE000
000FE000
000FE000
000FE000
001FE000
003FF000
007FFC00
ENDCHAR
STARTCHAR 005A
ENCODING 90
SWIDTH 763 0
DWIDTH 29 0
BBX 25 33 2 -1
BITMAP
38000000
3FFFFF80
3FFFFF80
3FFFFF80
3E03FF00
3C03FF00
3807FE00
7007FC00
700FFC00
601FF800
001FF800
003FF000
003FE000
007FE000
00FFC000
00FFC000
01FF8000
01FF0000
03FF0000
03FE0000
07FE0000
0FFC0180
0FFC0180
1FF80380
1FF00380
3FF00780
7FE00F80
7FE00F80
FFFFFF00
FFFFFF00
FFFFFF00
00000700
00000100
ENDCHAR
STARTCHAR 005B
ENCODING 91
SWIDTH 289 0
DWIDTH 11 0
BBX 9 36 2 -6
BITMAP
FF80
FF80
FF80
E000
E000
E000
E000
E000
E000
E000
E000
E000
E000
E000
E000
E000
E000
E000
E000
E000
E000
E000
E000
E000
E000
E000
E000
E000
E000
E000
E000
E000
E000
FF80
FF80
FF80
ENDCHAR
STARTCHAR 005C
ENCODING 92
SWIDTH 289 0
DWIDTH 11 0
BBX 11 32 0 -3
BITMAP
E000
E000
7000
7000
7000
7000
3800
3800
3800
3800
3C00
1C00
1C00
1C00
1C00
0E00
0E00
0E00
0E00
0700
0700
0700
0700
0380
0380
0380
0380
01C0
01C0
01C0
01C0
01E0
ENDCHAR
STARTCHAR 005D
ENCODING 93
SWIDTH 289 0
DWIDTH 11 0
BBX 9 36 0 -6
BITMAP
FF80
FF80
FF80
0380
0380
0380
0380
0380
0380
0380
0380
0380
0380
0380
0380
0380
0380
0380
0380
0380
0380
0380
0380
0380
0380
0380
0380
0380
0380
0380
0380
0380
0380
FF80
FF80
FF80
ENDCHAR
STARTCHAR 005E
ENCODING 94
SWIDTH 842 0
DWIDTH 32 0
BBX 14 8 5 20
BITMAP
0380
07C0
0FC0
1FE0
3FF0
3CF8
703C
C00C
ENDCHAR
STARTCHAR 005F
ENCODING 95
SWIDTH 789 0
DWIDTH 30 0
BBX 24 3 3 -6
BITMAP
FFFFFF
FFFFFF
FFFFFF
ENDCHAR
STARTCHAR 0060
ENCODING 96
SWIDTH 526 0
DWIDTH 20 0
BBX 10 8 5 24
BITMAP
3800
7800
FC00
FE00
FF00
3F80
0780
00C0
ENDCHAR
STARTCHAR 0061
ENCODING 97
SWIDTH 684 0
DWIDTH 26 0
BBX 26 23 0 0
BITMAP
00780000
01FFC000
0FFFE000
1FFFF000
0FFFF800
0E0FF800
0C03F800
0003F800
0003F800
001FF800
07FFF800
1FF3F800
7FE3F800
7F83F800
7F83F800
FF03F840
FF03F9C0
7F07FFC0
7F07FFC0
3F8FFF00
1FFF7E00
0FFC3C00
01F83000
ENDCHAR
STARTCHAR 0062
ENCODING 98
SWIDTH 710 0
DWIDTH 27 0
BBX 26 33 0 -1
BITMAP
00600000
07E00000
3FE00000
FFE00000
7FE00000
3FE00000
1FE00000
1FE00000
1FE00000
1FE0C000
1FE3F800
1FE7FC00
1FEFFE00
1FFFFE00
1FFFFF00
1FF9FF80
1FE0FFC0
1FE07FC0
1FE03FC0
1FE03FC0
1FE03FC0
1FE03FC0
1FE03FC0
1FE03FC0
1FE03FC0
1FE07F80
3FF0FF00
7FFFFE00
FFFFFE00
7F9FFC00
3F0FF800
1E07C000
0C000000
ENDCHAR
STARTCHAR 0063
ENCODING 99
SWIDTH 631 0
DWIDTH 24 0
BBX 22 23 2 0
BITMAP
00FF00
0FFFE0
1FFFF0
1FE7F0
3F81F0
7F01F8
FF01F0
FF01E0
FE01C0
FE0000
FE0000
FE0000
FE0000
FE0000
FF0018
FF003C
FF8078
7FC078
3FE0F0
1FFBE0
1FFFC0
07FF80
007E00
ENDCHAR
STARTCHAR 0064
ENCODING 100
SWIDTH 763 0
DWIDTH 29 0
BBX 27 32 2 0
BITMAP
00000400
00007C00
0003FC00
000FFC00
0007FC00
0003FC00
0001FC00
0001FC00
0001FC00
00F1FC00
07F9FC00
1FFDFC00
1FFFFC00
3FFFFC00
7F83FC00
FF03FC00
FE01FC00
FE01FC00
FE01FC00
FE01FC00
FE01FC00
FE01FC00
FE01FC00
FF01FC00
FF01FC00
FF83FC60
7FC3FFE0
3FFFFFE0
1FFFBF80
1FFF3F00
0FFE1E00
00FC1800
ENDCHAR
STARTCHAR 0065
ENCODING 101
SWIDTH 631 0
DWIDTH 24 0
BBX 22 23 2 0
BITMAP
01FF00
0FFFE0
1FFFF0
1FE7F0
3F81F0
7F01F8
FF01F8
FF01F0
FF0FE0
FE3FE0
FFFFC0
FFF000
FE0000
FE0000
FF000C
FF001C
FF8038
7FC078
3FE0F0
1FFBE0
1FFFC0
07FF80
007E00
ENDCHAR
STARTCHAR 0066
ENCODING 102
SWIDTH 473 0
DWIDTH 18 0
BBX 18 32 2 0
BITMAP
007C00
07FF00
0FFF80
0FDF80
1F9F80
1FBFC0
1F9F80
1F8F00
1F8200
1FC000
1FC000
FFFE00
FFFE00
FFFE00
7FE000
1FC000
1FC000
1FC000
1FC000
1FC000
1FC000
1FC000
1FC000
1FC000
1FC000
1FC000
1FC000
1FC000
1FC000
3FE000
7FF000
FFF800
ENDCHAR
STARTCHAR 0067
ENCODING 103
SWIDTH 684 0
DWIDTH 26 0
BBX 27 36 0 -12
BITMAP
000001C0
00FE07C0
03FFFFE0
07FFFFE0
0FF7F7E0
1FE3F060
3FC3FC00
3FC3FE00
3FC1FE00
3F81FE00
3F81FE00
3FC1FE00
3FC3FC00
1FC3F800
0FE3F000
07E7E000
01FFC000
007C0000
01FC0000
07FE0000
07FFF800
01FFFE00
007FFF00
03FFFF80
0FC7FF80
7F807FC0
7F007FC0
7F003FC0
FF003FC0
FF003FC0
FF003F80
7F803F00
3FC0FE00
3FFFFC00
1FFFF800
01FF8000
ENDCHAR
STARTCHAR 0068
ENCODING 104
SWIDTH 789 0
DWIDTH 30 0
BBX 26 32 2 0
BITMAP
00400000
07C00000
3FC00000
FFC00000
7FC00000
3FC00000
1FC00000
1FC00000
1FC00000
1FC08000
1FC3F000
1FCFFC00
1FDFFE00
1FFFFF00
1FFFFF00
1FF9FF00
1FE0FF00
1FC0FF00
1FC0FF00
1FC0FF00
1FC0FF00
1FC0FF00
1FC0FF00
1FC0FF00
1FC0FF00
1FC0FF00
1FC0FF00
1FC0FF00
1FC0FF00
3FC0FF00
7FE1FF80
FFE1FFC0
ENDCHAR
STARTCHAR 0069
ENCODING 105
SWIDTH 447 0
DWIDTH 17 0
BBX 13 32 2 0
BITMAP
0E00
1F00
3FC0
3FC0
7FC0
7F80
3F80
1F00
0600
00C0
07C0
7FC0
FFC0
7FC0
3FC0
1FC0
1FC0
1FC0
1FC0
1FC0
1FC0
1FC0
1FC0
1FC0
1FC0
1FC0
1FC0
1FC0
1FC0
3FE0
7FF0
FFF8
ENDCHAR
STARTCHAR 006A
ENCODING 106
SWIDTH 368 0
DWIDTH 14 0
BBX 14 44 -3 -12
BITMAP
01C0
03F0
03F8
07FC
07FC
07F8
07F0
01F0
00E0
000C
00FC
07FC
1FFC
0FFC
07FC
03FC
03FC
03FC
03FC
03FC
03FC
03FC
03FC
03FC
03FC
03FC
03FC
03FC
03FC
03FC
03FC
03FC
03F8
03F8
03F8
07F0
07F0
07E0
0FE0
1FC0
3F00
7C00
F000
4000
ENDCHAR
STARTCHAR 006B
ENCODING 107
SWIDTH 684 0
DWIDTH 26 0
BBX 26 33 0 -2
BITMAP
00200000
01E00000
1FE00000
FFE00000
7FE00000
3FE00000
1FE00000
1FE00000
1FE00000
1FE00000
1FE00000
1FFFFF80
1FE7FF00
1FE3FE00
1FE1FC00
1FE3F800
1FE3F000
1FE7E000
1FEFC000
1FEFE000
1FFFE000
1FFFF000
1FFFF000
1FFFF800
1FE7FC00
1FE3FC00
1FE3FE00
1FE1FE00
1FE1FF00
1FE0FF00
3FF07F80
7FF81FC0
80000380
ENDCHAR
STARTCHAR 006C
ENCODING 108
SWIDTH 394 0
DWIDTH 15 0
BBX 13 32 0 0
BITMAP
0060
03E0
3FE0
FFE0
7FE0
3FE0
1FE0
1FE0
1FE0
1FE0
1FE0
1FE0
1FE0
1FE0
1FE0
1FE0
1FE0
1FE0
1FE0
1FE0
1FE0
1FE0
1FE0
1FE0
1FE0
1FE0
1FE0
1FE0
1FE0
3FE0
7FF0
FFF8
ENDCHAR
STARTCHAR 006D
ENCODING 109
SWIDTH 1157 0
DWIDTH 44 0
BBX 40 23 2 0
BITMAP
00C3800700
078FF81FF0
7F9FFC3FF0
FF3FFE7FF8
7F3FFFFFF8
3E7FFFE7FC
1FF1FF83FC
1FC0FF03FC
1FC0FF03FC
1FC0FF03FC
1FC0FF03FC
1FC0FF03FC
1FC0FF03FC
1FC0FF03FC
1FC0FF03FC
1FC0FF03FC
1FC0FF03FC
1FC0FF03FC
1FC0FF03FC
1FC0FF03FC
3FE0FF03FC
7FE1FF87FE
FFF1FF87FF
ENDCHAR
STARTCHAR 006E
ENCODING 110
SWIDTH 789 0
DWIDTH 30 0
BBX 27 23 2 0
BITMAP
00C38000
078FF800
7F9FFC00
FF3FFE00
7F3FFF00
3E7FFF00
1FF1FF00
1FC0FF00
1FC0FF00
1FC0FF00
1FC0FF00
1FC0FF00
1FC0FF00
1FC0FF00
1FC0FF00
1FC0FF00
1FC0FF00
1FC0FF00
1FC0FF00
1FC0FF00
3FE0FF80
7FE1FFC0
FFF1FFE0
ENDCHAR
STARTCHAR 006F
ENCODING 111
SWIDTH 710 0
DWIDTH 27 0
BBX 24 23 2 0
BITMAP
00FF00
03FFC0
0FFFF0
3FE7F8
3F81FC
7F01FC
FF01FE
FF01FF
FF01FF
FE00FF
FE00FF
FE00FF
FE00FF
FF00FF
FF00FF
FF01FF
FF01FE
7F01FC
3F83FC
3FEFF8
0FFFE0
03FF80
00FE00
ENDCHAR
STARTCHAR 0070
ENCODING 112
SWIDTH 710 0
DWIDTH 27 0
BBX 26 35 0 -12
BITMAP
0040C000
03C3F800
3F87FC00
FF8FFE00
7F1FFE00
3F3FFF00
1FF8FF80
1FE07FC0
1FE03FC0
1FE03FC0
1FE03FC0
1FE03FC0
1FE03FC0
1FE03FC0
1FE03FC0
1FE03FC0
1FE07F80
1FF0FF00
1FFFFE00
1FFFFE00
1FFFFC00
1FEFF800
1FE7C000
1FE00000
1FE00000
1FE00000
1FE00000
1FE00000
1FE00000
1FE00000
1FE00000
1FE00000
3FE00000
7FF00000
FFF80000
ENDCHAR
STARTCHAR 0071
ENCODING 113
SWIDTH 710 0
DWIDTH 27 0
BBX 25 36 2 -12
BITMAP
00001000
00703C00
03F83F00
0FFE7F80
1FFFFF00
3FFFFF00
7FC7FE00
7F83FC00
FF03FC00
FE01FC00
FE01FC00
FE01FC00
FE01FC00
FE01FC00
FE01FC00
FE01FC00
FF01FC00
FF83FC00
7F83FC00
3FC7FC00
3FFFFC00
1FFDFC00
0FF9FC00
03F1FC00
0001FC00
0001FC00
0001FC00
0001FC00
0001FC00
0001FC00
0001FC00
0001FC00
0001FC00
0001FC00
0003FE00
000FFF80
ENDCHAR
STARTCHAR 0072
ENCODING 114
SWIDTH 552 0
DWIDTH 21 0
BBX 19 23 2 0
BITMAP
00C180
078FC0
7F9FE0
FF3FE0
7F3FE0
3E7FE0
1FE7E0
1FC7C0
1FC7C0
1FC780
1FC700
1FC000
1FC000
1FC000
1FC000
1FC000
1FC000
1FC000
1FC000
1FC000
3FE000
7FF000
FFF800
ENDCHAR
STARTCHAR 0073
ENCODING 115
SWIDTH 605 0
DWIDTH 23 0
BBX 19 23 2 0
BITMAP
03C100
0FFF00
3FFF80
7F0F80
7E0780
FE0380
FF0380
FFC180
FFE0C0
FFF800
7FFE00
1FFF80
0FFFC0
03FFC0
C0FFE0
C03FE0
E01FE0
F00FE0
F81FC0
F83FC0
7FFF80
5FFE00
03FC00
ENDCHAR
STARTCHAR 0074
ENCODING 116
SWIDTH 473 0
DWIDTH 18 0
BBX 18 27 0 0
BITMAP
006000
00E000
00E000
01E000
03E000
07E000
3FFF80
FFFF80
FFFF80
7FFC00
1FE000
1FE000
1FE000
1FE000
1FE000
1FE000
1FE000
1FE000
1FE000
1FE000
1FE0C0
1FF1C0
1FFF80
0FFF80
07FF00
03FE00
01F000
ENDCHAR
STARTCHAR 0075
ENCODING 117
SWIDTH 763 0
DWIDTH 29 0
BBX 29 23 0 0
BITMAP
00600100
07E01F00
3FE0FF00
FFE3FF00
7FE1FF00
3FE0FF00
1FE07F00
1FE07F00
1FE07F00
1FE07F00
1FE07F00
1FE07F00
1FE07F00
1FE07F00
1FE07F00
1FE07F08
1FE07F38
0FE1FFF8
0FFFFFF8
07FF9FE0
03FF0FC0
01FE0F80
00300600
ENDCHAR
STARTCHAR 0076
ENCODING 118
SWIDTH 684 0
DWIDTH 26 0
BBX 28 21 -1 0
BITMAP
FFFC7FF0
7FFC3FE0
3FF81FC0
1FF01F80
1FF01F80
0FF01F00
0FF03F00
0FF83E00
07F83E00
07F83C00
03FC3C00
03FC7800
03FE7800
01FE7800
01FE7000
00FFF000
00FFE000
007FE000
007FC000
007FC000
003F8000
ENDCHAR
STARTCHAR 0077
ENCODING 119
SWIDTH 947 0
DWIDTH 36 0
BBX 38 21 -1 0
BITMAP
FFFC031FFC
7FFC3F0FFC
3FF87F07F8
1FF07F83F0
1FF07F83E0
1FF07F83E0
0FF07FC7E0
0FF0FFC7C0
0FF8FFC7C0
07F8FFC7C0
07F8FFE780
07F8FFE780
03FCFFE780
03FDEFE700
03FDCFF700
01FDCFFE00
01FFC7FE00
01FF87FE00
00FF87FC00
00FF03FC00
00FE03F800
ENDCHAR
STARTCHAR 0078
ENCODING 120
SWIDTH 710 0
DWIDTH 27 0
BBX 27 21 0 0
BITMAP
FFF8FFE0
7FF87FC0
3FF03F00
1FF03E00
0FF87C00
07FC7800
03FEF000
01FFE000
00FF8000
00FF8000
007FC000
003FE000
003FF000
007FF800
00E7F800
01E7FC00
07C3FE00
0F81FF00
1FC1FF80
3FE3FFC0
7FF3FFE0
ENDCHAR
STARTCHAR 0079
ENCODING 121
SWIDTH 684 0
DWIDTH 26 0
BBX 28 33 -1 -12
BITMAP
FFFC7FF0
7FFC3FE0
3FF81FC0
1FF01F80
1FF01F00
0FF01F00
0FF83E00
07F83E00
07F83C00
03FC3C00
03FC7800
01FE7800
01FE7000
00FF7000
00FFE000
007FC000
007FC000
003F8000
003F8000
001F0000
001F0000
001E0000
003E0000
007C0000
00FC0000
01F80000
03F00000
07F00000
0FE00000
1FE00000
3FC00000
7FC00000
3F800000
ENDCHAR
STARTCHAR 007A
ENCODING 122
SWIDTH 631 0
DWIDTH 24 0
BBX 21 23 2 0
BITMAP
200000
300000
3FFFF8
3FFFF0
3FFFF0
3C1FE0
783FC0
707F80
607F00
00FF00
01FE00
03FC00
07F800
07F000
0FF018
1FE030
3FC070
7F80F0
7FC0F0
FFFDF0
FFFFF0
FFFFE0
FFFFE0
ENDCHAR
STARTCHAR 007B
ENCODING 123
SWIDTH 368 0
DWIDTH 14 0
BBX 12 37 2 -6
BITMAP
0010
00F0
01E0
03C0
07C0
0F80
1F80
3F80
7F80
7F80
3F80
3F80
3F80
3F00
3F00
1F00
3E00
7C00
E000
F800
7E00
3F00
3F00
3F00
3F80
3F80
3F80
7F80
7F80
7F80
3F80
1F80
0FC0
07C0
03E0
01F0
0030
ENDCHAR
STARTCHAR 007C
ENCODING 124
SWIDTH 157 0
DWIDTH 6 0
BBX 3 32 2 -3
BITMAP
E0
E0
E0
E0
E0
E0
E0
E0
E0
E0
E0
E0
E0
E0
E0
E0
E0
E0
E0
E0
E0
E0
E0
E0
E0
E0
E0
E0
E0
E0
E0
E0
ENDCHAR
STARTCHAR 007D
ENCODING 125
SWIDTH 315 0
DWIDTH 12 0
BBX 12 36 0 -6
BITMAP
C000
F000
7C00
3E00
3F00
3F80
1FC0
1FE0
1FC0
1FC0
1FC0
1FC0
1FC0
1F80
0F80
0F80
0FC0
01E0
00F0
07E0
0FC0
0F80
0F80
1FC0
1FC0
1FC0
1FC0
1FC0
1FE0
1FC0
3F80
3F00
3E00
7C00
F800
E000
ENDCHAR
STARTCHAR 007E
ENCODING 126
SWIDTH 842 0
DWIDTH 32 0
BBX 16 8 5 9
BITMAP
0C00
1E07
1F8F
3FFE
7FFC
FBFC
E0F8
4070
ENDCHAR
STARTCHAR 00A1
ENCODING 161
SWIDTH 315 0
DWIDTH 12 0
BBX 9 30 2 -7
BITMAP
3800
3C00
7F00
FF80
FF80
FF00
FE00
3E00
1C00
0000
0000
0C00
1C00
1C00
3E00
3E00
3E00
7F00
7F00
FF00
FF00
FF80
FF80
FF80
FF80
FF80
FF80
FF80
FF80
FF00
ENDCHAR
STARTCHAR 00A2
ENCODING 162
SWIDTH 631 0
DWIDTH 24 0
BBX 22 34 2 -2
BITMAP
018000
018000
008000
008000
008000
00C000
00FF00
0FFFE0
1FFFF0
1FEFF0
3FE3F0
7F61F8
7F61F0
FF21E0
FE21C0
FE2000
FE3000
FE3000
FE3000
FE1000
FE1010
FF103C
FF983C
7F9878
3FC8F0
3FFBE0
1FFFE0
0FFFC0
00FF00
000C00
000400
000400
000600
000600
ENDCHAR
STARTCHAR 00A3
ENCODING 163
SWIDTH 710 0
DWIDTH 27 0
BBX 25 32 2 -2
BITMAP
001F0000
00FFC000
01FFF000
03F8FC00
07F87E00
07F07F00
0FF03F00
0FF03F80
0FF03F80
0FF03F00
0FF03F00
07F83E00
07F83E00
03FC0000
03FC0000
01FC0000
1FFFE000
01FE0000
01FC0000
01FC0000
03FC0080
03F80180
03F00380
07E00380
07C00780
0F000780
0E000F80
1F000F00
7FFFFF00
FFFFFF00
FFFFFF00
00000300
ENDCHAR
STARTCHAR 00A5
ENCODING 165
SWIDTH 763 0
DWIDTH 29 0
BBX 31 30 -1 0
BITMAP
FFFC07FE
7FF803FC
3FF001F8
1FF000F0
1FF001E0
0FF801E0
07FC03C0
03FC0380
03FE0780
01FE0F00
00FF0E00
00FF9E00
007F9C00
003FF800
003FF800
001FF000
000FE000
000FE000
03FFFF80
03FFFF80
000FE000
000FE000
03FFFF80
03FFFF80
000FE000
000FE000
000FE000
001FF000
003FF800
007FFC00
ENDCHAR
STARTCHAR 00A6
ENCODING 166
SWIDTH 157 0
DWIDTH 6 0
BBX 3 32 2 -3
BITMAP
E0
E0
E0
E0
E0
E0
E0
E0
E0
E0
E0
E0
E0
E0
00
00
00
00
00
E0
E0
E0
E0
E0
E0
E0
E0
E0
E0
E0
E0
E0
ENDCHAR
STARTCHAR 00A7
ENCODING 167
SWIDTH 552 0
DWIDTH 21 0
BBX 21 42 0 -12
BITMAP
007880
0FFF80
0FFF80
1FC380
3FC380
3F81C0
3F81C0
3F80C0
3F80C0
1F8000
1FC000
07C000
01F000
007E00
0FFFC0
7F9FF0
7F0FF0
7F07F0
7F03F8
FF03F8
FF03F8
FF03F8
FF03F8
7F03F8
7F03F0
7F87F0
7FC7F0
3FFFE0
07FC00
00FC00
001F00
001FC0
000FC0
180FE0
180FE0
1C1FE0
0C1FF0
0E1FE0
0E3FC0
0FFFC0
0FFF80
0DFC00
ENDCHAR
STARTCHAR 00A8
ENCODING 168
SWIDTH 684 0
DWIDTH 26 0
BBX 16 8 5 24
BITMAP
3E1F
7E3F
FE7F
FE7F
FE7F
FC3E
781C
3008
ENDCHAR
STARTCHAR 00A9
ENCODING 169
SWIDTH 842 0
DWIDTH 32 0
BBX 26 26 3 6
BITMAP
FFFFFFC0
FFFFFFC0
FFFFFFC0
E00001C0
E00001C0
E03FC1C0
E0FFF1C0
E3FFF9C0
E3E1F9C0
E7E1F9C0
E7E1F9C0
E7E1F1C0
E7E001C0
E7E001C0
E7E001C0
E7E011C0
E7E039C0
E3F0F1C0
E1FFE1C0
E0FFE1C0
E07F81C0
E00001C0
E00001C0
FFFFFFC0
FFFFFFC0
FFFFFFC0
ENDCHAR
STARTCHAR 00AB
ENCODING 171
SWIDTH 526 0
DWIDTH 20 0
BBX 20 21 0 2
BITMAP
002040
006060
00F0E0
01F1E0
03E3C0
07C780
0F8F00
1F1E00
3E3C00
7C7800
F87000
787800
3C7C00
1E3E00
0F1F00
078F80
03C7C0
01E3E0
00F1F0
0070E0
002060
ENDCHAR
STARTCHAR 00AE
ENCODING 174
SWIDTH 842 0
DWIDTH 32 0
BBX 26 26 3 6
BITMAP
FFFFFFC0
FFFFFFC0
FFFFFFC0
E00001C0
E00001C0
E7FFC1C0
E3FFF1C0
E3F3F9C0
E3F1F9C0
E3F1F9C0
E3F1F9C0
E3F3F9C0
E3FFF1C0
E3FF81C0
E3FF81C0
E3F7F9C0
E3F3F9C0
E3F3F9C0
E3F1F1C0
E3F8F1C0
E7F8E1C0
E00001C0
E00001C0
FFFFFFC0
FFFFFFC0
FFFFFFC0
ENDCHAR
STARTCHAR 00AF
ENCODING 175
SWIDTH 552 0
DWIDTH 21 0
BBX 12 3 5 23
BITMAP
FFF0
FFF0
FFF0
ENDCHAR
STARTCHAR 00B0
ENCODING 176
SWIDTH 473 0
DWIDTH 18 0
BBX 12 13 3 21
BITMAP
0700
0F80
1FC0
3FE0
7FF0
F8F0
F8F0
F8F0
7FF0
3FE0
1FC0
0F80
0700
ENDCHAR
STARTCHAR 00B1
ENCODING 177
SWIDTH 605 0
DWIDTH 23 0
BBX 21 27 0 0
BITMAP
007000
007000
007000
007000
007000
007000
007000
007000
007000
FFFFF8
FFFFF8
FFFFF8
007000
007000
007000
007000
007000
007000
007000
007000
007000
000000
000000
000000
3FFFF0
3FFFF0
3FFFF0
ENDCHAR
STARTCHAR 00B4
ENCODING 180
SWIDTH 526 0
DWIDTH 20 0
BBX 10 8 5 24
BITMAP
0700
0F80
0FC0
1FC0
3FC0
7E00
F000
8000
ENDCHAR
STARTCHAR 00B6
ENCODING 182
SWIDTH 526 0
DWIDTH 20 0
BBX 17 43 0 -12
BITMAP
01FF80
0FFF80
1FF180
3FF180
3FF180
7FF180
7FF180
FFF180
FFF180
FFF180
FFF180
FFF180
7FF180
7FF180
3FF180
3FF180
1FF180
0FF180
01F180
001180
001180
001180
001180
001180
001180
001180
001180
001180
001180
001180
001180
001180
001180
001180
001180
001180
001180
001180
001180
001180
001180
001180
001180
ENDCHAR
STARTCHAR 00B7
ENCODING 183
SWIDTH 315 0
DWIDTH 12 0
BBX 9 9 2 6
BITMAP
3800
7C00
7F00
FF80
FF80
FF00
FE00
3E00
1C00
ENDCHAR
STARTCHAR 00B8
ENCODING 184
SWIDTH 263 0
DWIDTH 10 0
BBX 9 10 0 -8
BITMAP
0C00
1C00
3800
3F00
3F80
0F80
0780
FF80
FF00
FE00
ENDCHAR
STARTCHAR 00BB
ENCODING 187
SWIDTH 526 0
DWIDTH 20 0
BBX 20 21 0 2
BITMAP
404000
60E000
F0F000
F8F800
7C7C00
3E3E00
1F1F00
0F8F80
07C7C0
03E3E0
01E1F0
01E3E0
03C7C0
078F80
0F1F00
1E3E00
3C7C00
78F800
F0F000
60E000
404000
ENDCHAR
STARTCHAR 00BC
ENCODING 188
SWIDTH 1105 0
DWIDTH 42 0
BBX 33 34 5 -3
BITMAP
0080C00000
0780C00000
0F80800000
1F80800000
1F80800000
3F81800000
FF81800000
FF81800000
1F81001C00
1F8101FC00
1F8303FC00
1F8307FC00
1F8307FC00
1F820EFC00
1F821EFC00
1F821EFC00
1F863CFC00
1F867CFC00
1F867CFC00
3F84FCFC00
7FC4F8FC00
FFEDF8FC00
000DFCFC00
000CFFFC00
0008FFFF80
000800FC00
000800FC00
001800FC00
001801FC00
001803FE00
001007FF00
0010000000
0030000000
0030000000
ENDCHAR
STARTCHAR 00BD
ENCODING 189
SWIDTH 1105 0
DWIDTH 42 0
BBX 33 33 5 -1
BITMAP
0000C00000
0080C00000
0780800000
0F80800000
1F81800000
1F81800000
3F81800000
FF81000000
FF81000000
1F81000000
1F83000000
1F8307E000
1F831FF800
1F823FF800
1F827E7C00
1F867C7E00
1F867C7E00
1F86FC7E00
1F847C7E00
1F843C7E00
3FC41C7E00
7FEC00FE00
FFFC00FC00
000C01F980
000803F380
000807E380
00180F8700
00181E0700
00183F0F00
00107FDF00
0010FFFF00
0010FFFF00
0030000300
ENDCHAR
STARTCHAR 00BE
ENCODING 190
SWIDTH 1210 0
DWIDTH 46 0
BBX 41 33 3 -2
BITMAP
07F006000000
1FFC06000000
3FFE04000000
3E3F04000000
3C1F8C000000
3C1F0C000000
3C1F0C000000
003E08000000
007808007C00
03F80803FC00
007E1807FC00
003F1807FC00
1C3F180EFC00
3C1F901EFC00
7C1F903CFC00
FC1FB07CFC00
7C1F3078FC00
7E1F30F8FC00
3F3C21F0FC00
1FF823F0FC00
03E023F0FC00
000063F8FC00
000063FFFC00
000061FFFF80
00004000FC00
00004000FC00
0000C000FC00
0000C001FE00
0000C003FF00
00008007FF80
000080000000
000080000000
000180000000
ENDCHAR
STARTCHAR 00BF
ENCODING 191
SWIDTH 605 0
DWIDTH 23 0
BBX 23 31 0 -8
BITMAP
006000
00F800
01FC00
01FE00
03FE00
03FE00
03FC00
00F800
007800
000000
000000
001800
001C00
000E00
003E00
03FE00
0FF800
1FE000
3F8000
7F8000
7F01E0
FF01F0
FF01FC
FF01FE
FF01FE
FF01FC
7F83FC
7FC7FC
1FFFF0
07FFC0
01FF00
ENDCHAR
STARTCHAR 00C0
ENCODING 192
SWIDTH 868 0
DWIDTH 33 0
BBX 33 41 0 0
BITMAP
0007000000
000F000000
001F800000
001FC00000
001FE00000
0003F00000
0000700000
0000080000
0000000000
0000100000
0000700000
0001F80000
0003F80000
0003F80000
0007FC0000
0007FC0000
000FFE0000
000FFE0000
001EFE0000
001EFF0000
001CFF0000
003C7F0000
003C7F8000
00787F8000
00783F8000
00F03FC000
00F03FC000
00F01FE000
01E01FE000
01E01FE000
03FFFFF000
03FFFFF000
07FFFFF000
078007F800
0F8003F800
0F0003FC00
0F0003FC00
1F0001FC00
3F0003FE00
7F8007FF00
FFC00FFF80
ENDCHAR
STARTCHAR 00C1
ENCODING 193
SWIDTH 868 0
DWIDTH 33 0
BBX 33 41 0 0
BITMAP
0000300000
0000780000
0000FC0000
0001FE0000
0001FE0000
0003F00000
0007800000
000C000000
0000000000
0000100000
0000700000
0001F80000
0003F80000
0003F80000
0007FC0000
0007FC0000
000FFC0000
000FFE0000
000EFE0000
001EFF0000
001CFF0000
003C7F0000
003C7F8000
00787F8000
00783F8000
00F03FC000
00F03FC000
00F01FE000
01E01FE000
01E01FE000
03FFFFF000
03FFFFF000
07FFFFF000
078007F800
078003F800
0F0003F800
0F0003FC00
1F0001FC00
3F0003FE00
7F8007FF00
FFC00FFF80
ENDCHAR
STARTCHAR 00C2
ENCODING 194
SWIDTH 868 0
DWIDTH 33 0
BBX 33 41 0 0
BITMAP
0001E00000
0003E00000
0007F00000
000FF80000
000FFC0000
001E1E0000
0038060000
0060010000
0000000000
0000100000
0000700000
0001F80000
0003F80000
0003F80000
0007FC0000
0007FC0000
000FFC0000
000FFE0000
000EFE0000
001EFF0000
001CFF0000
003C7F0000
003C7F8000
00787F8000
00783F8000
00F03FC000
00F03FC000
00F01FE000
01E01FE000
01E01FE000
03FFFFF000
03FFFFF000
07FFFFF000
078007F800
078003F800
0F0003F800
0F0003FC00
1F0001FC00
3F0003FE00
7F8007FF00
FFC00FFF80
ENDCHAR
STARTCHAR 00C3
ENCODING 195
SWIDTH 868 0
DWIDTH 33 0
BBX 33 41 0 0
BITMAP
0007018000
000FC3C000
000FEF8000
001FFF0000
003FFF0000
007C7E0000
00303C0000
0000000000
0000000000
0000100000
0000700000
0001F80000
0003F80000
0003F80000
0007FC0000
0007FC0000
000FFE0000
000FFE0000
001EFE0000
001EFF0000
001CFF0000
003C7F0000
003C7F8000
00787F8000
00783F8000
00F03FC000
00F03FC000
00F01FE000
01E01FE000
01E01FE000
03FFFFF000
03FFFFF000
07FFFFF000
078007F800
0F8003F800
0F0003FC00
0F0003FC00
1F0001FC00
3F0003FE00
7F8007FF00
FFC00FFF80
ENDCHAR
STARTCHAR 00C4
ENCODING 196
SWIDTH 868 0
DWIDTH 33 0
BBX 33 41 0 0
BITMAP
000F87C000
001F8FC000
003F9FC000
007FBFC000
007FBFC000
003F1F8000
001E0F0000
0000000000
0000000000
0000100000
0000700000
0001F80000
0003F80000
0003F80000
0007FC0000
0007FC0000
000FFE0000
000FFE0000
001EFE0000
001EFF0000
001CFF0000
003C7F0000
003C7F8000
00787F8000
00783F8000
00F03FC000
00F03FC000
00F01FE000
01E01FE000
01E01FE000
03FFFFF000
03FFFFF000
07FFFFF000
078007F800
0F8003F800
0F0003FC00
0F0003FC00
1F0001FC00
3F0003FE00
7F8007FF00
FFC00FFF80
ENDCHAR
STARTCHAR 00C5
ENCODING 197
SWIDTH 868 0
DWIDTH 33 0
BBX 33 41 0 0
BITMAP
0000E00000
0001F00000
0003F80000
0003B80000
0003B80000
0003F80000
0001F00000
0000E00000
0000000000
0000000000
0000300000
0000F00000
0003F80000
0003F80000
0007FC0000
0007FC0000
0007FC0000
000FFE0000
000EFE0000
001EFE0000
001CFF0000
003C7F0000
003C7F8000
00387F8000
00783F8000
00783FC000
00F03FC000
00F01FC000
01E01FE000
01E01FE000
03E00FE000
03FFFFF000
03FFFFF000
07FFFFF800
078007F800
0F8003F800
0F0003FC00
1F0003FC00
1F0001FC00
3F8003FE00
FFC00FFF80
ENDCHAR
STARTCHAR 00C6
ENCODING 198
SWIDTH 1131 0
DWIDTH 43 0
BBX 41 34 0 -2
BITMAP
000000000400
000000007C00
00003FFFFC00
00007FFFFC00
00007FFFFE00
0000FFF03E00
0000EFE01E00
0001CFE01E00
0001CFE00E00
00038FE00600
00078FE00200
00070FE00000
000F0FE01000
000E0FE03000
001E0FF07000
001C0FF8F000
003C0FFFF000
00780FFFF000
00780FF8F000
00F00FF07000
00FFFFE03000
01FFFFE01180
01FFFFE00180
03C00FE00380
03C00FE00380
07800FE00780
0F800FE00F00
0F000FE00F00
1F000FF01F00
1F001FFFFF00
3F803FFFFF00
7FC07FFFFF00
800000000700
000000000100
ENDCHAR
STARTCHAR 00C7
ENCODING 199
SWIDTH 789 0
DWIDTH 30 0
BBX 28 39 2 -9
BITMAP
001FF000
007FFC00
01FFFF00
07FC1FC0
0FF007C0
1FE007E0
3FC007F0
7F8007F0
7F8007E0
7F8007E0
FF8007C0
FF800780
FF800000
FF800000
FF800000
FF800000
FF800000
FF800000
FF800000
FF800000
7F800000
7F800060
7FC000F0
3FC000F0
1FE001E0
0FF003C0
07FC1FC0
01FFFF00
007FFC00
001FF000
00070000
000E0000
000FC000
000FE000
0003E000
0001E000
003FE000
003FC000
003F8000
ENDCHAR
STARTCHAR 00C8
ENCODING 200
SWIDTH 763 0
DWIDTH 29 0
BBX 25 43 2 -2
BITMAP
00C00000
01E00000
03F00000
03F80000
03F80000
01FC0000
003E0000
00070000
00000000
00000000
00003C00
FFFFFE00
7FFFFE00
3FFFFE00
1FE03E00
1FC01E00
1FC00E00
1FC00E00
1FC00700
1FC00300
1FC00800
1FC01800
1FC03800
1FE07800
1FF0F800
1FFFF800
1FFFF800
1FF0F800
1FE07800
1FC03800
1FC01880
1FC00980
1FC00180
1FC00380
1FC00780
1FC00780
1FC00F80
1FE00F00
3FFFFF00
7FFFFF00
FFFFFF00
00000700
00000100
ENDCHAR
STARTCHAR 00C9
ENCODING 201
SWIDTH 763 0
DWIDTH 29 0
BBX 25 43 2 -2
BITMAP
00060000
000F0000
001F8000
001FC000
003FC000
007F0000
00F80000
01C00000
00000000
00000000
00003C00
FFFFFE00
7FFFFE00
3FFFFE00
1FE03E00
1FC01E00
1FC00E00
1FC00E00
1FC00700
1FC00300
1FC00800
1FC01800
1FC03800
1FE07800
1FF0F800
1FFFF800
1FFFF800
1FF0F800
1FE07800
1FC03800
1FC01880
1FC00980
1FC00180
1FC00380
1FC00780
1FC00780
1FC00F80
1FE00F00
3FFFFF00
7FFFFF00
FFFFFF00
00000700
00000100
ENDCHAR
STARTCHAR 00CA
ENCODING 202
SWIDTH 763 0
DWIDTH 29 0
BBX 25 43 2 -2
BITMAP
00380000
007C0000
00FE0000
00FF0000
01FF8000
03E78000
0781C000
0E006000
00000000
00000000
00003C00
FFFFFE00
7FFFFE00
3FFFFE00
1FE03E00
1FC01E00
1FC00E00
1FC00E00
1FC00700
1FC00300
1FC00800
1FC01800
1FC03800
1FE07800
1FF0F800
1FFFF800
1FFFF800
1FF0F800
1FE07800
1FC03800
1FC01880
1FC00980
1FC00180
1FC00380
1FC00780
1FC00780
1FC00F80
1FE00F00
3FFFFF00
7FFFFF00
FFFFFF00
00000700
00000100
ENDCHAR
STARTCHAR 00CB
ENCODING 203
SWIDTH 763 0
DWIDTH 29 0
BBX 25 43 2 -2
BITMAP
01F0F800
03F1F800
07F3F800
0FF7F800
0FF7F800
07E3F000
03C1E000
0180C000
00000000
00000000
00003C00
FFFFFE00
7FFFFE00
3FFFFE00
1FE03E00
1FC01E00
1FC00E00
1FC00E00
1FC00700
1FC00300
1FC00800
1FC01800
1FC03800
1FE07800
1FF0F800
1FFFF800
1FFFF800
1FF0F800
1FE07800
1FC03800
1FC01880
1FC00980
1FC00180
1FC00380
1FC00780
1FC00780
1FC00F80
1FE00F00
3FFFFF00
7FFFFF00
FFFFFF00
00000700
00000100
ENDCHAR
STARTCHAR 00CC
ENCODING 204
SWIDTH 447 0
DWIDTH 17 0
BBX 13 41 2 0
BITMAP
3000
7800
FC00
FE00
FE00
7F00
0F80
01C0
0000
0000
0000
FFF8
7FF0
3FE0
1FC0
1FC0
1FC0
1FC0
1FC0
1FC0
1FC0
1FC0
1FC0
1FC0
1FC0
1FC0
1FC0
1FC0
1FC0
1FC0
1FC0
1FC0
1FC0
1FC0
1FC0
1FC0
1FC0
1FC0
3FC0
7FE0
FFF8
ENDCHAR
STARTCHAR 00CD
ENCODING 205
SWIDTH 447 0
DWIDTH 17 0
BBX 13 41 2 0
BITMAP
0180
03C0
07E0
07F0
0FF0
1FC0
3E00
7000
0000
0000
0000
FFF8
7FF0
3FE0
1FC0
1FC0
1FC0
1FC0
1FC0
1FC0
1FC0
1FC0
1FC0
1FC0
1FC0
1FC0
1FC0
1FC0
1FC0
1FC0
1FC0
1FC0
1FC0
1FC0
1FC0
1FC0
1FC0
1FC0
3FC0
7FE0
FFF8
ENDCHAR
STARTCHAR 00CE
ENCODING 206
SWIDTH 447 0
DWIDTH 17 0
BBX 15 41 0 0
BITMAP
0380
07C0
0FE0
0FF0
1FF0
3C78
701C
C006
0000
0000
0000
3FFE
1FFC
0FF8
07F0
07F0
07F0
07F0
07F0
07F0
07F0
07F0
07F0
07F0
07F0
07F0
07F0
07F0
07F0
07F0
07F0
07F0
07F0
07F0
07F0
07F0
07F0
07F0
0FF0
1FF8
3FFE
ENDCHAR
STARTCHAR 00CF
ENCODING 207
SWIDTH 447 0
DWIDTH 17 0
BBX 17 41 0 0
BITMAP
1F0F80
3F1F80
7F3F80
FF7F80
FF7F80
7E3F00
3C1E00
180C00
000000
000000
000000
3FFE00
1FFC00
0FF800
07F000
07F000
07F000
07F000
07F000
07F000
07F000
07F000
07F000
07F000
07F000
07F000
07F000
07F000
07F000
07F000
07F000
07F000
07F000
07F000
07F000
07F000
07F000
07F000
0FF000
1FF800
3FFE00
ENDCHAR
STARTCHAR 00D1
ENCODING 209
SWIDTH 868 0
DWIDTH 33 0
BBX 29 41 2 0
BITMAP
00080000
001E0600
003F1E00
007FFE00
007FFC00
00F3F800
01E0F000
00807000
00000000
00000000
00000000
FFC00FF8
7FE007F0
3FF003E0
1FF003E0
1FF803E0
1FFC03E0
1FFC01E0
1FFE01E0
1FFE01E0
1DFF01E0
1DFF81E0
1CFF81E0
1C7FC1E0
1C7FC1E0
1C3FE1E0
1C3FF1E0
1C1FF1E0
1C0FF9E0
1C0FF9E0
1E07FCE0
1E07FEE0
1E03FEE0
1E01FFE0
1E01FFE0
1E00FFE0
1E00FFE0
1E007FE0
3F003FE0
7F803FE0
FFC01FE0
ENDCHAR
STARTCHAR 00D2
ENCODING 210
SWIDTH 921 0
DWIDTH 35 0
BBX 31 41 2 0
BITMAP
00080000
001C0000
003E0000
007F0000
007F8000
003F8000
0007C000
0000E000
00000000
00000000
00000000
001FF000
007FFC00
01FFFF00
07FC7FC0
0FF01FE0
1FE00FF0
3FC007F8
7FC007FC
7F8003FC
7F8003FC
FF8003FE
FF8003FE
FF8003FE
FF8003FE
FF8003FE
FF8003FE
FF8003FE
FF8003FE
FF8003FE
FF8003FE
7F8003FC
7F8003FC
7FC007FC
3FC007F8
1FE00FF0
0FF01FE0
07FC7FC0
01FFFF00
007FFC00
001FF000
ENDCHAR
STARTCHAR 00D3
ENCODING 211
SWIDTH 921 0
DWIDTH 35 0
BBX 31 41 2 0
BITMAP
0000C000
0001E000
0001F000
0003F800
0007F800
000FE000
001F0000
00180000
00000000
00000000
00000000
001FF000
007FFC00
01FFFF00
07FC7FC0
0FF01FE0
1FE00FF0
3FC007F8
7FC007FC
7F8003FC
7F8003FC
FF8003FE
FF8003FE
FF8003FE
FF8003FE
FF8003FE
FF8003FE
FF8003FE
FF8003FE
FF8003FE
FF8003FE
7F8003FC
7F8003FC
7FC007FC
3FC007F8
1FE00FF0
0FF01FE0
07FC7FC0
01FFFF00
007FFC00
001FF000
ENDCHAR
STARTCHAR 00D4
ENCODING 212
SWIDTH 921 0
DWIDTH 35 0
BBX 31 41 2 0
BITMAP
00070000
000F8000
001FC000
001FE000
003FF000
007CF000
00F03800
01C00C00
00000000
00000000
00000000
001FF000
007FFC00
01FFFF00
07FC7FC0
0FF01FE0
1FE00FF0
3FC007F8
7FC007FC
7F8003FC
7F8003FC
FF8003FE
FF8003FE
FF8003FE
FF8003FE
FF8003FE
FF8003FE
FF8003FE
FF8003FE
FF8003FE
FF8003FE
7F8003FC
7F8003FC
7FC007FC
3FC007F8
1FE00FF0
0FF01FE0
07FC7FC0
01FFFF00
007FFC00
001FF000
ENDCHAR
STARTCHAR 00D5
ENCODING 213
SWIDTH 921 0
DWIDTH 35 0
BBX 31 41 2 0
BITMAP
00080000
001E0600
003F1E00
007FFE00
007FFC00
00F3F800
01E0F000
00807000
00000000
00000000
00000000
001FF000
007FFC00
01FFFF00
07FC7FC0
0FF01FE0
1FE00FF0
3FC007F8
7FC007FC
7F8003FC
7F8003FC
FF8003FE
FF8003FE
FF8003FE
FF8003FE
FF8003FE
FF8003FE
FF8003FE
FF8003FE
FF8003FE
FF8003FE
7F8003FC
7F8003FC
7FC007FC
3FC007F8
1FE00FF0
0FF01FE0
07FC7FC0
01FFFF00
007FFC00
001FF000
ENDCHAR
STARTCHAR 00D6
ENCODING 214
SWIDTH 921 0
DWIDTH 35 0
BBX 31 41 2 0
BITMAP
003E1F00
007E3F00
00FE7F00
01FEFF00
01FEFF00
00FC7E00
00783C00
00301800
00000000
00000000
00000000
001FF000
007FFC00
01FFFF00
07FC7FC0
0FF01FE0
1FE00FF0
3FC007F8
7FC007FC
7F8003FC
7F8003FC
FF8003FE
FF8003FE
FF8003FE
FF8003FE
FF8003FE
FF8003FE
FF8003FE
FF8003FE
FF8003FE
FF8003FE
7F8003FC
7F8003FC
7FC007FC
3FC007F8
1FE00FF0
0FF01FE0
07FC7FC0
01FFFF00
007FFC00
001FF000
ENDCHAR
STARTCHAR 00D7
ENCODING 215
SWIDTH 631 0
DWIDTH 24 0
BBX 18 18 3 3
BITMAP
100100
300380
7807C0
7C0FC0
3E0F80
1F1E00
0F3C00
03F800
01F000
01E000
03F000
07BC00
1F1E00
3E1F00
7C0F80
F807C0
780380
300100
ENDCHAR
STARTCHAR 00D9
ENCODING 217
SWIDTH 894 0
DWIDTH 34 0
BBX 31 41 2 0
BITMAP
00060000
000F0000
001F0000
003F8000
003FC000
000FE000
0001F000
00003000
00000000
00000000
00000000
FFF807FE
7FF003FC
3FE001F8
1FC000F0
1FC000F0
1FC000F0
1FC000F0
1FC000F0
1FC000F0
1FC000F0
1FC000F0
1FC000F0
1FC000F0
1FC000F0
1FC000F0
1FC000F0
1FC000F0
1FC000F0
1FC000F0
1FC000F0
1FC000F0
1FE000F0
1FE000F0
1FE001F0
0FF001E0
0FF803E0
07FE07C0
03FFFF80
01FFFF00
007FFC00
ENDCHAR
STARTCHAR 00DA
ENCODING 218
SWIDTH 894 0
DWIDTH 34 0
BBX 31 41 2 0
BITMAP
00002000
00007000
0000F800
0001FC00
0003FC00
0003F800
0007C000
000E0000
00000000
00000000
00000000
FFF807FE
7FF003FC
3FE001F8
1FC000F0
1FC000F0
1FC000F0
1FC000F0
1FC000F0
1FC000F0
1FC000F0
1FC000F0
1FC000F0
1FC000F0
1FC000F0
1FC000F0
1FC000F0
1FC000F0
1FC000F0
1FC000F0
1FC000F0
1FC000F0
1FE000F0
1FE000F0
1FE001F0
0FF001E0
0FF803E0
07FE07C0
03FFFF80
01FFFF00
007FFC00
ENDCHAR
STARTCHAR 00DB
ENCODING 219
SWIDTH 894 0
DWIDTH 34 0
BBX 31 41 2 0
BITMAP
0001C000
0003E000
0007E000
000FF000
001FF800
001E7C00
00381E00
00600600
00000000
00000000
00000000
FFF807FE
7FF003FC
3FE001F8
1FC000F0
1FC000F0
1FC000F0
1FC000F0
1FC000F0
1FC000F0
1FC000F0
1FC000F0
1FC000F0
1FC000F0
1FC000F0
1FC000F0
1FC000F0
1FC000F0
1FC000F0
1FC000F0
1FC000F0
1FC000F0
1FE000F0
1FE000F0
1FE001F0
0FF001E0
0FF803E0
07FE07C0
03FFFF80
01FFFF00
007FFC00
ENDCHAR
STARTCHAR 00DC
ENCODING 220
SWIDTH 894 0
DWIDTH 34 0
BBX 31 41 2 0
BITMAP
000F0780
001F0F80
003F1F80
007F3F80
007F3F80
007F3F80
003E1F00
001C0E00
00000000
00000000
00000000
FFF807FE
7FF003FC
3FE001F8
1FC000F0
1FC000F0
1FC000F0
1FC000F0
1FC000F0
1FC000F0
1FC000F0
1FC000F0
1FC000F0
1FC000F0
1FC000F0
1FC000F0
1FC000F0
1FC000F0
1FC000F0
1FC000F0
1FC000F0
1FC000F0
1FE000F0
1FE000F0
1FE001F0
0FF001E0
0FF803E0
07FE07C0
03FFFF80
01FFFF00
007FFC00
ENDCHAR
STARTCHAR 00DD
ENCODING 221
SWIDTH 763 0
DWIDTH 29 0
BBX 31 41 -1 0
BITMAP
00002000
00007000
0000F800
0001FC00
0003FC00
0003F800
0007C000
000E0000
00000000
00000000
00000000
FFFC07FE
7FF803FC
3FF001F8
1FF000F0
1FF001E0
0FF801E0
07FC03C0
07FC0380
03FE0780
01FE0700
01FF0E00
00FF0E00
007F9C00
007FD800
003FF800
001FF000
001FE000
000FE000
000FE000
000FE000
000FE000
000FE000
000FE000
000FE000
000FE000
000FE000
000FE000
001FE000
003FF000
007FFC00
ENDCHAR
STARTCHAR 00E0
ENCODING 224
SWIDTH 684 0
DWIDTH 26 0
BBX 26 32 0 0
BITMAP
00600000
00F00000
01F80000
03F80000
03FC0000
007E0000
000F0000
00018000
00000000
00300000
01FF8000
07FFE000
1FFFF000
1FFFF800
0E0FF800
0C03F800
0803F800
0003F800
0007F800
01FFF800
1FFBF800
7FE3F800
7FC3F800
7F83F800
FF03F800
FF03F8C0
FF07FFC0
7F07FFC0
3F8FFF00
3FFF7E00
1FFC7C00
03F83000
ENDCHAR
STARTCHAR 00E1
ENCODING 225
SWIDTH 684 0
DWIDTH 26 0
BBX 26 32 0 0
BITMAP
00070000
000F8000
000FC000
001FC000
003FC000
007E0000
00F00000
00000000
00000000
00780000
01FFC000
0FFFE000
1FFFF000
0FFFF800
0E0FF800
0C03F800
0003F800
0003F800
001FF800
07FFF800
1FF3F800
7FE3F800
7F83F800
7F83F800
FF03F840
FF03F9C0
7F07FFC0
7F07FFC0
3F8FFF00
1FFF7E00
0FFC3C00
01F83000
ENDCHAR
STARTCHAR 00E2
ENCODING 226
SWIDTH 684 0
DWIDTH 26 0
BBX 26 32 0 0
BITMAP
003C0000
007E0000
007F0000
00FF0000
01FF8000
03C3C000
0700E000
04003000
00000000
00300000
01FF8000
07FFE000
1FFFF000
1FFFF800
0E0FF800
0C03F800
0803F800
0003F800
0007F800
01FFF800
1FFBF800
7FE3F800
7FC3F800
7F83F800
FF03F800
FF03F8C0
FF07FFC0
7F07FFC0
3F8FFF00
3FFF7E00
1FFC7C00
03F83000
ENDCHAR
STARTCHAR 00E3
ENCODING 227
SWIDTH 684 0
DWIDTH 26 0
BBX 26 32 0 0
BITMAP
00600000
00F03800
00FC7800
01FFF000
03FFE000
07DFE000
0707C000
06038000
00000000
00000000
00FE0000
03FFE000
1FFFF000
1FFFF800
0E1FF800
0C07F800
0803F800
0003F800
0003F800
007FF800
0FFBF800
3FF3F800
7FC3F800
7F83F800
7F83F800
FF03F8C0
FF03FFC0
7F07FFC0
7F87FF80
3FFFFF00
1FFE7C00
07FC3800
ENDCHAR
STARTCHAR 00E4
ENCODING 228
SWIDTH 684 0
DWIDTH 26 0
BBX 26 32 0 0
BITMAP
01F0F800
03F1F800
07F3F800
07F3F800
07F3F800
03E1F000
01C0E000
00000000
00000000
00780000
01FFC000
0FFFE000
1FFFF000
0FFFF800
0E0FF800
0C03F800
0003F800
0003F800
001FF800
07FFF800
1FF3F800
7FE3F800
7F83F800
7F83F800
FF03F840
FF03F9C0
7F07FFC0
7F07FFC0
3F8FFF00
1FFF7E00
0FFC3C00
01F83000
ENDCHAR
STARTCHAR 00E5
ENCODING 229
SWIDTH 684 0
DWIDTH 26 0
BBX 26 32 0 0
BITMAP
000C0000
001E0000
003F0000
00738000
00738000
003F0000
001E0000
000C0000
00000000
00000000
00FE0000
03FFE000
1FFFF000
1FFFF800
0E1FF800
0C07F800
0803F800
0003F800
0003F800
007FF800
0FFBF800
3FF3F800
7FC3F800
7F83F800
7F03F800
FF03F8C0
FF03FFC0
7F07FFC0
7F87FF80
3FFF7F00
1FFE7C00
07F83800
ENDCHAR
STARTCHAR 00E6
ENCODING 230
SWIDTH 868 0
DWIDTH 33 0
BBX 33 23 0 0
BITMAP
00F003F800
07FF8FFF00
1FFF9FFF00
3FFFDE7F80
3FFFF81F80
381FF81F80
100FF81F80
000FF81F80
000FF07F00
003FF1FE00
07FFFFFE00
1FEFFF0000
7FCFF00000
7F8FF00000
7F8FF00000
FF0FF80000
FF0FFC0180
7F0FFC0380
7F1FFE0F00
3F9CFFBE00
1FF87FFC00
0FF01FF000
01C003C000
ENDCHAR
STARTCHAR 00E7
ENCODING 231
SWIDTH 631 0
DWIDTH 24 0
BBX 22 32 2 -9
BITMAP
00FF00
0FFFE0
1FFFF0
1FE7F0
3F81F0
7F01F8
FF01F0
FF01E0
FE01C0
FE0000
FE0000
FE0000
FE0000
FE0000
FF0018
FF003C
FF8078
7FC078
3FC0F0
1FF3E0
1FFFC0
0FFFC0
00FF00
003800
007000
007E00
007F00
001F00
000F00
01FF00
01FE00
01FC00
ENDCHAR
STARTCHAR 00E8
ENCODING 232
SWIDTH 631 0
DWIDTH 24 0
BBX 22 32 2 0
BITMAP
038000
07C000
0FE000
0FF000
0FF000
01F800
003C00
000000
000000
01FF00
0FFFE0
1FFFF0
1FE7F0
3F81F0
7F01F8
FF01F8
FF01F0
FF0FE0
FE3FE0
FFFFC0
FFF000
FE0000
FE0000
FF000C
FF001C
FF8038
7FC078
3FE0F0
1FFBE0
1FFFC0
07FF80
007E00
ENDCHAR
STARTCHAR 00E9
ENCODING 233
SWIDTH 631 0
DWIDTH 24 0
BBX 22 32 2 0
BITMAP
001C00
003E00
003F00
007F00
00FF00
01F800
03C000
000000
000000
01FF00
0FFFE0
1FFFF0
1FE7F0
3F81F0
7F01F8
FF01F8
FF01F0
FF0FE0
FE3FE0
FFFFC0
FFF000
FE0000
FE0000
FF000C
FF001C
FF8038
7FC078
3FE0F0
1FFBE0
1FFFC0
07FF80
007E00
ENDCHAR
STARTCHAR 00EA
ENCODING 234
SWIDTH 631 0
DWIDTH 24 0
BBX 22 32 2 0
BITMAP
00F000
01F800
01FC00
03FE00
07FE00
0F0F00
1C0380
000000
000000
01FF00
0FFFE0
1FFFF0
1FE7F0
3F81F0
7F01F8
FF01F8
FF01F0
FF0FE0
FE3FE0
FFFFC0
FFF000
FE0000
FE0000
FF000C
FF001C
FF8038
7FC078
3FE0F0
1FFBE0
1FFFC0
07FF80
007E00
ENDCHAR
STARTCHAR 00EB
ENCODING 235
SWIDTH 631 0
DWIDTH 24 0
BBX 22 32 2 0
BITMAP
07C3E0
0FC7E0
1FCFE0
1FCFE0
1FCFE0
0F87C0
070380
000000
000000
01FF00
0FFFE0
1FFFF0
1FE7F0
3F81F0
7F01F8
FF01F8
FF01F0
FF0FE0
FE3FE0
FFFFC0
FFF000
FE0000
FE0000
FF000C
FF001C
FF8038
7FC078
3FE0F0
1FFBE0
1FFFC0
07FF80
007E00
ENDCHAR
STARTCHAR 00EC
ENCODING 236
SWIDTH 368 0
DWIDTH 14 0
BBX 13 32 2 0
BITMAP
3800
7800
FC00
FE00
FF00
1F80
0380
0040
0000
00C0
07C0
7FC0
FFC0
7FC0
3FC0
1FC0
1FC0
1FC0
1FC0
1FC0
1FC0
1FC0
1FC0
1FC0
1FC0
1FC0
1FC0
1FC0
1FC0
3FE0
7FF0
FFF8
ENDCHAR
STARTCHAR 00ED
ENCODING 237
SWIDTH 368 0
DWIDTH 14 0
BBX 13 32 2 0
BITMAP
0180
03C0
07E0
0FF0
0FF0
1F80
3C00
6000
0000
0040
03C0
3FC0
FFC0
7FC0
3FC0
1FC0
1FC0
1FC0
1FC0
1FC0
1FC0
1FC0
1FC0
1FC0
1FC0
1FC0
1FC0
1FC0
1FC0
3FE0
7FF0
FFF8
ENDCHAR
STARTCHAR 00EE
ENCODING 238
SWIDTH 368 0
DWIDTH 14 0
BBX 15 32 0 0
BITMAP
03C0
07C0
0FE0
1FF0
3FF8
3C3C
700C
8002
0000
0030
01F0
1FF0
3FF0
1FF0
0FF0
07F0
07F0
07F0
07F0
07F0
07F0
07F0
07F0
07F0
07F0
07F0
07F0
07F0
07F0
0FF8
1FFC
3FFE
ENDCHAR
STARTCHAR 00EF
ENCODING 239
SWIDTH 368 0
DWIDTH 14 0
BBX 17 32 0 0
BITMAP
3F0F80
7F1F80
FF3F80
FF7F80
FF7F80
7E3F00
3C1E00
000000
000000
003000
01F000
1FF000
3FF000
1FF000
0FF000
07F000
07F000
07F000
07F000
07F000
07F000
07F000
07F000
07F000
07F000
07F000
07F000
07F000
07F000
0FF800
1FFC00
3FFE00
ENDCHAR
STARTCHAR 00F1
ENCODING 241
SWIDTH 789 0
DWIDTH 30 0
BBX 26 32 2 0
BITMAP
00300000
00781C00
007E3C00
00FFF800
01FFF000
03EFF000
0383E000
0101C000
00000000
00000000
01C7E000
1F9FF800
FF9FFC00
FF3FFE00
7F7FFF00
3E7FFF00
1FE0FF00
1FC0FF00
1FC0FF00
1FC0FF00
1FC0FF00
1FC0FF00
1FC0FF00
1FC0FF00
1FC0FF00
1FC0FF00
1FC0FF00
1FC0FF00
1FC0FF00
3FC0FF00
7FE0FF80
FFE1FFC0
ENDCHAR
STARTCHAR 00F2
ENCODING 242
SWIDTH 710 0
DWIDTH 27 0
BBX 24 32 2 0
BITMAP
00E000
01E000
03F000
03F800
03FC00
007E00
000E00
000100
000000
00FF00
03FFC0
0FFFF0
3FE7F8
3F81FC
7F01FC
FF01FE
FF01FF
FF01FF
FE00FF
FE00FF
FE00FF
FE00FF
FF00FF
FF00FF
FF01FF
FF01FE
7F01FC
3F83FC
3FEFF8
0FFFE0
03FF80
00FE00
ENDCHAR
STARTCHAR 00F3
ENCODING 243
SWIDTH 710 0
DWIDTH 27 0
BBX 24 32 2 0
BITMAP
000600
000F00
001F80
003FC0
007FC0
007E00
00F000
000000
000000
00FF00
03FFC0
0FFFF0
3FE7F8
3F81FC
7F01FC
FF01FE
FF01FF
FF01FF
FE00FF
FE00FF
FE00FF
FE00FF
FF00FF
FF00FF
FF01FF
FF01FE
7F01FC
3F83FC
3FEFF8
0FFFE0
03FF80
00FE00
ENDCHAR
STARTCHAR 00F4
ENCODING 244
SWIDTH 710 0
DWIDTH 27 0
BBX 24 32 2 0
BITMAP
003C00
007C00
00FE00
01FF00
03FF80
03C3C0
0700C0
000020
000000
00FF00
03FFC0
0FFFF0
3FE7F8
3F81FC
7F01FC
FF01FE
FF01FF
FF01FF
FE00FF
FE00FF
FE00FF
FE00FF
FF00FF
FF00FF
FF01FF
FF01FE
7F01FC
3F83FC
3FEFF8
0FFFE0
03FF80
00FE00
ENDCHAR
STARTCHAR 00F5
ENCODING 245
SWIDTH 710 0
DWIDTH 27 0
BBX 24 32 2 0
BITMAP
004000
00F030
01F8F0
03FFF0
03FFE0
079FC0
0F0F80
040380
000000
000000
01FF80
07FFE0
1FFFF8
3FC3F8
7F81FC
7F01FE
FF01FE
FF01FF
FF00FF
FE00FF
FE00FF
FE00FF
FF00FF
FF00FF
FF00FF
FF01FE
7F01FE
7F81FC
3FC7F8
1FFFF0
07FFC0
01FF00
ENDCHAR
STARTCHAR 00F6
ENCODING 246
SWIDTH 710 0
DWIDTH 27 0
BBX 24 32 2 0
BITMAP
03F0F8
07F1F8
0FF3F8
0FF7F8
0FF7F8
07E3F0
03C1E0
000000
000000
00FF00
03FFC0
0FFFF0
3FE7F8
3F81FC
7F01FC
FF01FE
FF01FF
FF01FF
FE00FF
FE00FF
FE00FF
FE00FF
FF00FF
FF00FF
FF01FF
FF01FE
7F01FC
3F83FC
3FEFF8
0FFFE0
03FF80
00FE00
ENDCHAR
STARTCHAR 00F7
ENCODING 247
SWIDTH 473 0
DWIDTH 18 0
BBX 14 19 3 3
BITMAP
0300
0780
0780
0780
0300
0000
0000
0000
FFFC
FFFC
FFFC
0000
0000
0000
0300
0780
0780
0780
0300
ENDCHAR
STARTCHAR 00F9
ENCODING 249
SWIDTH 763 0
DWIDTH 29 0
BBX 29 32 0 0
BITMAP
00300000
00780000
00FC0000
00FE0000
00FF0000
003F8000
00078000
0000C000
00000000
00200100
03E00F00
1FE0FF00
FFE3FF00
7FE1FF00
3FE0FF00
1FE07F00
1FE07F00
1FE07F00
1FE07F00
1FE07F00
1FE07F00
1FE07F00
1FE07F00
1FE07F00
1FE07F00
1FE07F18
1FE0FFF8
0FFFFFF8
07FF9FE0
07FF0FC0
03FE0F80
00700600
ENDCHAR
STARTCHAR 00FA
ENCODING 250
SWIDTH 763 0
DWIDTH 29 0
BBX 29 32 0 0
BITMAP
00018000
0003C000
0007E000
000FF000
001FF000
001F8000
003C0000
00000000
00000000
00600100
07E01F00
3FE0FF00
FFE3FF00
7FE1FF00
3FE0FF00
1FE07F00
1FE07F00
1FE07F00
1FE07F00
1FE07F00
1FE07F00
1FE07F00
1FE07F00
1FE07F00
1FE07F08
1FE07F38
0FE1FFF8
0FFFFFF8
07FF9FE0
03FF0FC0
01FE0F80
00300600
ENDCHAR
STARTCHAR 00FB
ENCODING 251
SWIDTH 763 0
DWIDTH 29 0
BBX 29 32 0 0
BITMAP
000F0000
001F0000
003F8000
007FC000
00FFE000
00F0F000
01C03000
00000800
00000000
00600100
07E01F00
3FE0FF00
FFE3FF00
7FE1FF00
3FE0FF00
1FE07F00
1FE07F00
1FE07F00
1FE07F00
1FE07F00
1FE07F00
1FE07F00
1FE07F00
1FE07F00
1FE07F08
1FE07F38
0FE1FFF8
0FFFFFF8
07FF9FE0
03FF0FC0
01FE0F80
00300600
ENDCHAR
STARTCHAR 00FC
ENCODING 252
SWIDTH 763 0
DWIDTH 29 0
BBX 29 32 0 0
BITMAP
00FC3E00
01FC7E00
03FCFE00
03FDFE00
03FDFE00
01F8FC00
00F07800
00000000
00000000
00600100
07E01F00
3FE0FF00
FFE3FF00
7FE1FF00
3FE0FF00
1FE07F00
1FE07F00
1FE07F00
1FE07F00
1FE07F00
1FE07F00
1FE07F00
1FE07F00
1FE07F00
1FE07F08
1FE07F38
0FE1FFF8
0FFFFFF8
07FF9FE0
03FF0FC0
01FE0F80
00300600
ENDCHAR
STARTCHAR 00FD
ENCODING 253
SWIDTH 684 0
DWIDTH 26 0
BBX 28 44 -1 -12
BITMAP
0000C000
0001E000
0003F000
0003F800
0007F800
000FE000
001F0000
00380000
00000000
00000000
00000000
FFFC7FF0
7FFC3FE0
3FF81FC0
1FF01F80
1FF01F80
0FF01F00
0FF03E00
07F83E00
07F83C00
03FC3C00
03FC7800
01FE7800
01FE7000
00FF7000
00FFE000
007FE000
007FC000
003F8000
003F8000
001F0000
001F0000
001E0000
003E0000
007C0000
00FC0000
01F80000
03F00000
07F00000
0FE00000
1FE00000
3FC00000
7FC00000
3F800000
ENDCHAR
STARTCHAR 00FF
ENCODING 255
SWIDTH 684 0
DWIDTH 26 0
BBX 28 44 -1 -12
BITMAP
003E1F00
007E3F00
00FE7F00
01FEFF00
01FEFF00
00FC7E00
00783C00
00301800
00000000
00000000
00000000
FFFC7FF0
7FFC3FE0
3FF81FC0
1FF01F80
1FF01F80
0FF01F00
0FF03E00
07F83E00
07F83C00
03FC3C00
03FC7800
01FE7800
01FE7000
00FF7000
00FFE000
007FE000
007FC000
003F8000
003F8000
001F0000
001F0000
001E0000
003E0000
007C0000
00FC0000
01F80000
03F00000
07F00000
0FE00000
1FE00000
3FC00000
7FC00000
3F800000
ENDCHAR
STARTCHAR 0100
ENCODING 256
SWIDTH 868 0
DWIDTH 33 0
BBX 33 38 0 0
BITMAP
001FFE0000
001FFE0000
001FFE0000
0000000000
0000000000
0000000000
0000100000
0000700000
0001F80000
0003F80000
0003F80000
0007FC0000
0007FC0000
000FFC0000
000FFE0000
000EFE0000
001EFF0000
001CFF0000
003C7F0000
003C7F8000
00787F8000
00783F8000
00F03FC000
00F03FC000
00F01FE000
01E01FE000
01E01FE000
03FFFFF000
03FFFFF000
07FFFFF000
078007F800
078003F800
0F0003F800
0F0003FC00
1F0001FC00
3F0003FE00
7F8007FF00
FFC00FFF80
ENDCHAR
STARTCHAR 0128
ENCODING 296
SWIDTH 447 0
DWIDTH 17 0
BBX 16 41 0 0
BITMAP
0C00
0F07
1F8F
3FFF
7FFE
79FC
F0F8
4038
0000
0000
0000
3FFE
1FFC
0FF8
07F0
07F0
07F0
07F0
07F0
07F0
07F0
07F0
07F0
07F0
07F0
07F0
07F0
07F0
07F0
07F0
07F0
07F0
07F0
07F0
07F0
07F0
07F0
07F0
0FF0
1FF8
3FFE
ENDCHAR
STARTCHAR 0129
ENCODING 297
SWIDTH 368 0
DWIDTH 14 0
BBX 16 32 0 0
BITMAP
0400
0F03
1F8F
3FFF
7FFE
79FC
F0F8
4038
0000
0000
0070
07F0
3FF0
3FF0
1FF0
0FF0
07F0
07F0
07F0
07F0
07F0
07F0
07F0
07F0
07F0
07F0
07F0
07F0
07F0
0FF0
1FF8
3FFE
ENDCHAR
STARTCHAR 0130
ENCODING 304
SWIDTH 447 0
DWIDTH 17 0
BBX 13 43 2 0
BITMAP
0C00
1E00
1F80
3FC0
7FC0
7FC0
7F80
3F00
0F00
0600
0000
0000
0000
FFF8
7FE0
3FC0
1FC0
1FC0
1FC0
1FC0
1FC0
1FC0
1FC0
1FC0
1FC0
1FC0
1FC0
1FC0
1FC0
1FC0
1FC0
1FC0
1FC0
1FC0
1FC0
1FC0
1FC0
1FC0
1FC0
1FC0
3FE0
7FF0
FFF8
ENDCHAR
STARTCHAR 0131
ENCODING 305
SWIDTH 368 0
DWIDTH 14 0
BBX 13 23 2 0
BITMAP
00C0
07C0
7FC0
FFC0
7FC0
3FC0
1FC0
1FC0
1FC0
1FC0
1FC0
1FC0
1FC0
1FC0
1FC0
1FC0
1FC0
1FC0
1FC0
1FC0
3FE0
7FF0
FFF8
ENDCHAR
STARTCHAR 014C
ENCODING 332
SWIDTH 921 0
DWIDTH 35 0
BBX 31 38 2 0
BITMAP
007FF800
007FF800
007FF800
00000000
00000000
00000000
00000000
00000000
001FF000
007FFC00
01FFFF00
07FC7FC0
0FF01FE0
1FE00FF0
3FC007F8
7FC007FC
7F8003FC
7F8003FC
FF8003FE
FF8003FE
FF8003FE
FF8003FE
FF8003FE
FF8003FE
FF8003FE
FF8003FE
FF8003FE
FF8003FE
7F8003FC
7F8003FC
7FC007FC
3FC007F8
1FE00FF0
0FF01FE0
07FC7FC0
01FFFF00
007FFC00
001FF000
ENDCHAR
STARTCHAR 0152
ENCODING 338
SWIDTH 1078 0
DWIDTH 41 0
BBX 37 32 2 -1
BITMAP
00000003E0
001FFFFFE0
007FFFFFE0
01FFFFFFE0
07FCFF83E0
0FF0FF01E0
1FE0FF00E0
3FC0FF0070
7FC0FF0070
7F80FF0030
7F80FF0080
FF80FF0180
FF80FF0380
FF80FF8780
FF80FFFF80
FF80FFFF80
FF80FFFF80
FF80FF8780
FF80FF0380
FF80FF0180
FF80FF0088
7F80FF0018
7F80FF0018
7FC0FF0038
3FC0FF0078
1FE0FF0078
0FF0FF00F8
07FCFF80F8
01FFFFFFF0
007FFFFFF0
001FFFFFF0
0000000030
ENDCHAR
STARTCHAR 0153
ENCODING 339
SWIDTH 1000 0
DWIDTH 38 0
BBX 36 23 2 0
BITMAP
00FF00FE00
03FFC3FFC0
0FFFE3FFE0
3FE7F7CFE0
3F81FF03E0
7F01FF03F0
FF01FE03F0
FF01FE03E0
FF01FE0FC0
FE00FE7FC0
FE00FDFF80
FE00FFE000
FE00FC0000
FF00FC0000
FF00FE0000
FF01FF0020
FF01FF0070
7F01FF80E0
3F83FFC1C0
3FEF9FF780
0FFF0FFF00
03FC07FE00
00F000F800
ENDCHAR
STARTCHAR 0160
ENCODING 352
SWIDTH 631 0
DWIDTH 24 0
BBX 21 41 2 0
BITMAP
600100
380600
1E1E00
1FFC00
0FF800
07F000
03E000
01E000
000000
000000
0FF0C0
1FFFC0
7FFFC0
7F0FC0
7E07C0
FE03E0
FE01E0
FF00E0
FF8060
FFC060
FFF000
7FF800
7FFC00
3FFF00
1FFF80
0FFFC0
07FFE0
01FFF0
00FFF0
807FF0
C01FF0
E00FF0
E007F8
F003F8
F801F0
F801F0
FC01E0
7E03E0
7FFFC0
7FFFC0
61FF00
ENDCHAR
STARTCHAR 0161
ENCODING 353
SWIDTH 605 0
DWIDTH 23 0
BBX 19 32 2 0
BITMAP
300700
3C1E00
1F7C00
0FF800
07F800
03F000
03E000
000000
000000
03C100
0FFF00
3FFF80
7F0F80
7E0780
FE0380
FF0380
FFC180
FFE0C0
FFF800
7FFE00
1FFF80
0FFFC0
03FFC0
C0FFE0
C03FE0
E01FE0
F00FE0
F81FC0
F83FC0
7FFF80
5FFE00
03FC00
ENDCHAR
STARTCHAR 0168
ENCODING 360
SWIDTH 921 0
DWIDTH 35 0
BBX 31 41 2 0
BITMAP
00080000
001E0600
003F1E00
007FFE00
007FFC00
00F3F800
01E0F000
00807000
00000000
00000000
00000000
FFF807FE
7FF003FC
3FE001F8
1FC000F0
1FC000F0
1FC000F0
1FC000F0
1FC000F0
1FC000F0
1FC000F0
1FC000F0
1FC000F0
1FC000F0
1FC000F0
1FC000F0
1FC000F0
1FC000F0
1FC000F0
1FC000F0
1FC000F0
1FC000F0
1FE000F0
1FE000F0
1FE001F0
0FF001E0
0FF803E0
07FE07C0
03FFFF80
01FFFF00
007FFC00
ENDCHAR
STARTCHAR 0169
ENCODING 361
SWIDTH 763 0
DWIDTH 29 0
BBX 29 32 0 0
BITMAP
00100000
003C0C00
007E3C00
00FFFC00
00FFF800
01E7F000
03C3E000
0180E000
00000000
00000000
01E00700
0FE03F00
FFE3FF00
7FE1FF00
3FE0FF00
1FE07F00
1FE07F00
1FE07F00
1FE07F00
1FE07F00
1FE07F00
1FE07F00
1FE07F00
1FE07F00
1FE07F00
1FE07F18
1FE0FFF8
0FF3FFF8
0FFFDFF0
07FF9FE0
03FF0F80
00F80700
ENDCHAR
STARTCHAR 0174
ENCODING 372
SWIDTH 1131 0
DWIDTH 43 0
BBX 45 43 -1 -2
BITMAP
00001C000000
00003E000000
00003F000000
00007F800000
0000FFC00000
0001F3C00000
0003C0E00000
000300300000
000000000000
000000000000
000000000000
FFFC00007FF8
7FF800003FF0
3FF003E01FE0
1FF01FE00FC0
1FF01FF00F80
1FF01FF01F80
0FF81FF01F80
0FF81FF01F00
0FF83FF81F00
07F83FF83F00
07FC3FF83E00
07FC3FF83E00
07FC37FC3C00
03FC33FC3C00
03FE73FC7C00
03FE73FC7800
01FE63FE7800
01FF61FE7000
01FF61FEF000
00FF61FEF000
00FF40FEE000
00FFC0FEE000
007FC0FFC000
007FC0FFC000
007FC07FC000
003F807F8000
003F807F8000
003F803F8000
001F803F0000
001F003F0000
001F003E0000
001800100000
ENDCHAR
STARTCHAR 0176
ENCODING 374
SWIDTH 763 0
DWIDTH 29 0
BBX 31 41 -1 0
BITMAP
0001C000
0003E000
0007E000
000FF000
001FF800
001E7C00
00381E00
00600600
00000000
00000000
00000000
FFFC07FE
7FF803FC
3FF001F8
1FF000F0
1FF001E0
0FF801E0
07FC03C0
07FC0380
03FE0780
01FE0700
01FF0E00
00FF0E00
007F9C00
007FD800
003FF800
001FF000
001FE000
000FE000
000FE000
000FE000
000FE000
000FE000
000FE000
000FE000
000FE000
000FE000
000FE000
001FE000
003FF000
007FFC00
ENDCHAR
STARTCHAR 0177
ENCODING 375
SWIDTH 684 0
DWIDTH 26 0
BBX 28 44 -1 -12
BITMAP
00070000
000F8000
001FC000
001FE000
003FF000
007CF000
00F03800
01C00C00
00000000
00000000
00000000
FFFC7FF0
7FFC3FE0
3FF81FC0
1FF01F80
1FF01F80
0FF01F00
0FF03E00
07F83E00
07F83C00
03FC3C00
03FC7800
01FE7800
01FE7000
00FF7000
00FFE000
007FE000
007FC000
003F8000
003F8000
001F0000
001F0000
001E0000
003E0000
007C0000
00FC0000
01F80000
03F00000
07F00000
0FE00000
1FE00000
3FC00000
7FC00000
3F800000
ENDCHAR
STARTCHAR 0178
ENCODING 376
SWIDTH 763 0
DWIDTH 29 0
BBX 31 41 -1 0
BITMAP
001F0780
003F0F80
007F1F80
007F3F80
007F3F80
007F3F80
003E1F00
001C0E00
00000000
00000000
00000000
FFFC07FE
7FF803FC
3FF001F8
1FF000F0
1FF001E0
0FF801E0
07FC03C0
07FC0380
03FE0780
01FE0700
01FF0E00
00FF0E00
007F9C00
007FD800
003FF800
001FF000
001FE000
000FE000
000FE000
000FE000
000FE000
000FE000
000FE000
000FE000
000FE000
000FE000
000FE000
001FE000
003FF000
007FFC00
ENDCHAR
STARTCHAR 0179
ENCODING 377
SWIDTH 763 0
DWIDTH 29 0
BBX 25 42 2 -2
BITMAP
00038000
0007C000
000FE000
000FE000
001FE000
003F0000
00780000
00000000
00000000
38000000
3FFFFF80
3FFFFF80
3FFFFF80
3E03FF00
3C03FF00
3807FE00
7007FC00
700FFC00
601FF800
001FF800
003FF000
003FE000
007FE000
00FFC000
00FFC000
01FF8000
01FF8000
03FF0000
03FE0000
07FE0000
0FFC0180
0FFC0180
1FF80380
1FF00380
3FF00780
7FE00F80
7FE00F80
FFFFFF00
FFFFFF00
FFFFFF00
00000700
00000100
ENDCHAR
STARTCHAR 017B
ENCODING 379
SWIDTH 763 0
DWIDTH 29 0
BBX 25 44 2 -2
BITMAP
001C0000
001E0000
003F8000
007FC000
007FC000
007F8000
007F8000
001F0000
000E0000
00000000
00000000
38000000
3FFFFF80
3FFFFF80
3FFFFF80
3E03FF00
3C03FF00
3807FE00
7007FC00
700FFC00
601FF800
001FF800
003FF000
003FE000
007FE000
00FFC000
00FFC000
01FF8000
01FF0000
03FF0000
03FE0000
07FE0000
0FFC0180
0FFC0180
1FF80380
1FF00380
3FF00780
7FE00F80
7FE00F80
FFFFFF00
FFFFFF00
FFFFFF00
00000700
00000100
ENDCHAR
STARTCHAR 017D
ENCODING 381
SWIDTH 763 0
DWIDTH 29 0
BBX 25 42 2 -2
BITMAP
03803000
01E0E000
00FBE000
007FC000
007F8000
003F0000
001E0000
00000000
00000000
38000000
3FFFFF80
3FFFFF80
3FFFFF80
3E03FF00
3C03FF00
3807FE00
7007FC00
700FFC00
601FF800
001FF800
003FF000
003FE000
007FE000
00FFC000
00FFC000
01FF8000
01FF8000
03FF0000
03FE0000
07FE0000
0FFC0180
0FFC0180
1FF80380
1FF00380
3FF00780
7FE00F80
7FE00F80
FFFFFF00
FFFFFF00
FFFFFF00
00000700
00000100
ENDCHAR
STARTCHAR 017E
ENCODING 382
SWIDTH 631 0
DWIDTH 24 0
BBX 21 32 2 0
BITMAP
1000C0
1C0380
0F0F00
07FE00
03FC00
01FC00
01F800
00F000
000000
000000
300000
3FFFF8
3FFFF8
3FFFF0
3E1FE0
3C3FC0
783FC0
707F80
60FF00
01FE00
03FC00
03FC00
07F800
0FF018
1FE038
3FC030
3FC070
7F80F0
FFF1F0
FFFFF0
FFFFF0
FFFFE0
ENDCHAR
STARTCHAR 01FC
ENCODING 508
SWIDTH 1131 0
DWIDTH 43 0
BBX 41 43 0 -2
BITMAP
000000030000
000000078000
00000007C000
0000000FE000
0000001FE000
0000003F8000
0000007C0000
000000600000
000000000000
000000000000
000000003C00
00003FFFFC00
00007FFFFC00
00007FFFFE00
0000FFF03E00
0000EFE01E00
0001CFE01E00
0001CFE00E00
00038FE00600
00078FE00200
00070FE00000
000F0FE01000
000E0FE03000
001E0FF07000
001C0FF8F000
003C0FFFF000
00780FFFF000
00780FF8F000
00F00FF07000
00FFFFE03000
01FFFFE01180
01FFFFE00180
03C00FE00380
03C00FE00380
07800FE00780
0F800FE00F00
0F000FE00F00
1F000FF01F00
1F001FFFFF00
3F803FFFFF00
7FC07FFFFF00
800000000700
000000000100
ENDCHAR
STARTCHAR 0243
ENCODING 579
SWIDTH 763 0
DWIDTH 29 0
BBX 29 30 0 0
BITMAP
FFFFC000
7FFFFF00
3FFFFF80
1FF0FF80
1FE03FC0
1FE01FE0
1FE01FE0
1FE01FE0
1FE01FC0
1FE03FC0
1FE07F80
1FE07F00
1FE3F800
1FFFFC00
1FFFFFC0
1FE0FFC0
1FE03FE0
1FE01FE0
1FE00FF0
FFFE0FF0
FFFE07F8
1FE007F8
1FE007F0
1FE00FF0
1FE00FE0
1FE00FE0
1FF07FC0
3FFFFF80
7FFFFC00
FFFFF000
ENDCHAR
STARTCHAR 02C6
ENCODING 710
SWIDTH 631 0
DWIDTH 24 0
BBX 15 8 5 24
BITMAP
0780
0FC0
0FE0
1FE0
3FF0
7878
E01C
8006
ENDCHAR
STARTCHAR 02C7
ENCODING 711
SWIDTH 631 0
DWIDTH 24 0
BBX 14 8 5 24
BITMAP
C00C
703C
3CF8
3FF0
1FE0
0FC0
07C0
0380
ENDCHAR
STARTCHAR 02D9
ENCODING 729
SWIDTH 842 0
DWIDTH 32 0
BBX 9 9 9 24
BITMAP
1800
3E00
7F00
7F80
FF80
FF80
7F00
3E00
0E00
ENDCHAR
STARTCHAR 02DA
ENCODING 730
SWIDTH 842 0
DWIDTH 32 0
BBX 7 8 8 24
BITMAP
38
7C
FE
EE
EE
FE
7C
38
ENDCHAR
STARTCHAR 02DC
ENCODING 732
SWIDTH 684 0
DWIDTH 26 0
BBX 16 8 5 21
BITMAP
0E02
1F0F
3FDF
7FFE
7FFC
F1F8
E0F8
4030
ENDCHAR
STARTCHAR 0304
ENCODING 772
SWIDTH 0 0
DWIDTH 0 0
BBX 12 3 -17 23
BITMAP
FFF0
FFF0
FFF0
ENDCHAR
STARTCHAR 1E80
ENCODING 7808
SWIDTH 1131 0
DWIDTH 43 0
BBX 45 43 -1 -2
BITMAP
000020000000
000070000000
0000F8000000
0001FC000000
0001FE000000
0000FE000000
00001F000000
000003800000
000000000000
000000000000
000000000000
FFFC00007FF8
7FF800003FF0
3FF003E01FE0
1FF01FE00FC0
1FF01FF00F80
1FF01FF01F80
0FF81FF01F80
0FF81FF01F00
0FF83FF81F00
07F83FF83F00
07FC3FF83E00
07FC3FF83E00
07FC37FC3C00
03FC33FC3C00
03FE73FC7C00
03FE73FC7800
01FE63FE7800
01FF61FE7000
01FF61FEF000
00FF61FEF000
00FF40FEE000
00FFC0FEE000
007FC0FFC000
007FC0FFC000
007FC07FC000
003F807F8000
003F807F8000
003F803F8000
001F803F0000
001F003F0000
001F003E0000
001800100000
ENDCHAR
STARTCHAR 1E82
ENCODING 7810
SWIDTH 1131 0
DWIDTH 43 0
BBX 45 43 -1 -2
BITMAP
000003000000
000007800000
000007C00000
00000FE00000
00001FE00000
00003F800000
00007C000000
000060000000
000000000000
000000000000
000000000000
FFFC00007FF8
7FF800003FF0
3FF003E01FE0
1FF01FE00FC0
1FF01FF00F80
1FF01FF01F80
0FF81FF01F80
0FF81FF01F00
0FF83FF81F00
07F83FF83F00
07FC3FF83E00
07FC3FF83E00
07FC37FC3C00
03FC33FC3C00
03FE73FC7C00
03FE73FC7800
01FE63FE7800
01FF61FE7000
01FF61FEF000
00FF61FEF000
00FF40FEE000
00FFC0FEE000
007FC0FFC000
007FC0FFC000
007FC07FC000
003F807F8000
003F807F8000
003F803F8000
001F803F0000
001F003F0000
001F003E0000
001800100000
ENDCHAR
STARTCHAR 1E84
ENCODING 7812
SWIDTH 1131 0
DWIDTH 43 0
BBX 45 43 -1 -2
BITMAP
0000F87C0000
0001F8FC0000
0003F9FC0000
0007FBFC0000
0007FBFC0000
0003F1F80000
0001E0F00000
0000C0600000
000000000000
000000000000
000000000000
FFFC00007FF8
7FF800003FF0
3FF003E01FE0
1FF01FE00FC0
1FF01FF00F80
1FF01FF01F80
0FF81FF01F80
0FF81FF01F00
0FF83FF81F00
07F83FF83F00
07FC3FF83E00
07FC3FF83E00
07FC37FC3C00
03FC33FC3C00
03FE73FC7C00
03FE73FC7800
01FE63FE7800
01FF61FE7000
01FF61FEF000
00FF61FEF000
00FF40FEE000
00FFC0FEE000
007FC0FFC000
007FC0FFC000
007FC07FC000
003F807F8000
003F807F8000
003F803F8000
001F803F0000
001F003F0000
001F003E0000
001800100000
ENDCHAR
STARTCHAR 1EF2
ENCODING 7922
SWIDTH 763 0
DWIDTH 29 0
BBX 31 41 -1 0
BITMAP
00060000
000F0000
001F0000
003F8000
003FC000
000FE000
0001F000
00003000
00000000
00000000
00000000
FFFC07FE
7FF803FC
3FF001F8
1FF000F0
1FF001E0
0FF801E0
07FC03C0
07FC0380
03FE0780
01FE0700
01FF0E00
00FF0E00
007F9C00
007FD800
003FF800
001FF000
001FE000
000FE000
000FE000
000FE000
000FE000
000FE000
000FE000
000FE000
000FE000
000FE000
000FE000
001FE000
003FF000
007FFC00
ENDCHAR
STARTCHAR 1EF3
ENCODING 7923
SWIDTH 684 0
DWIDTH 26 0
BBX 28 44 -1 -12
BITMAP
00180000
003C0000
007E0000
007F0000
007F0000
003F8000
0007C000
0000E000
00000000
00000000
00000000
FFFC7FF0
7FFC3FE0
3FF81FC0
1FF01F80
1FF01F80
0FF01F00
0FF03E00
07F83E00
07F83C00
03FC3C00
03FC7800
01FE7800
01FE7000
00FF7000
00FFE000
007FE000
007FC000
003F8000
003F8000
001F0000
001F0000
001E0000
003E0000
007C0000
00FC0000
01F80000
03F00000
07F00000
0FE00000
1FE00000
3FC00000
7FC00000
3F800000
ENDCHAR
STARTCHAR 2013
ENCODING 8211
SWIDTH 473 0
DWIDTH 18 0
BBX 12 3 3 9
BITMAP
FFF0
FFF0
FFF0
ENDCHAR
STARTCHAR 2014
ENCODING 8212
SWIDTH 789 0
DWIDTH 30 0
BBX 24 3 3 9
BITMAP
FFFFFF
FFFFFF
FFFFFF
ENDCHAR
STARTCHAR 2018
ENCODING 8216
SWIDTH 210 0
DWIDTH 8 0
BBX 8 11 0 21
BITMAP
03
07
0F
1F
3F
7F
FF
FF
7E
3C
18
ENDCHAR
STARTCHAR 2019
ENCODING 8217
SWIDTH 210 0
DWIDTH 8 0
BBX 8 11 0 21
BITMAP
18
3C
7E
FF
FF
FE
FC
F8
F0
E0
C0
ENDCHAR
STARTCHAR 201A
ENCODING 8218
SWIDTH 210 0
DWIDTH 8 0
BBX 8 11 0 -6
BITMAP
18
3C
7E
FF
FF
FE
FC
F8
F0
E0
C0
ENDCHAR
STARTCHAR 201C
ENCODING 8220
SWIDTH 447 0
DWIDTH 17 0
BBX 17 11 0 21
BITMAP
030180
070380
0F0780
1F0F80
3F1F80
7F3F80
FF7F80
FF7F80
7E3F00
3C1E00
180C00
ENDCHAR
STARTCHAR 201D
ENCODING 8221
SWIDTH 447 0
DWIDTH 17 0
BBX 17 11 0 21
BITMAP
180C00
3C1E00
7E3F00
FF7F80
FF7F80
FE7F00
FC7E00
F87C00
F07800
E07000
C06000
ENDCHAR
STARTCHAR 201E
ENCODING 8222
SWIDTH 447 0
DWIDTH 17 0
BBX 17 11 0 -6
BITMAP
180C00
3C1E00
7E3F00
FF7F80
FF7F80
FE7F00
FC7E00
F87C00
F07800
E07000
C06000
ENDCHAR
STARTCHAR 2020
ENCODING 8224
SWIDTH 447 0
DWIDTH 17 0
BBX 17 32 0 0
BITMAP
03E000
07F000
07F000
07F000
07E000
03E000
03E000
03C000
41C300
F1CF80
FDBF80
FFFF80
FFFF80
FD9F80
F18700
41C000
01C000
01C000
01C000
03C000
03C000
03E000
03E000
03E000
03E000
07E000
07E000
07F000
07F000
07F000
07F000
07F000
ENDCHAR
STARTCHAR 2021
ENCODING 8225
SWIDTH 447 0
DWIDTH 17 0
BBX 17 32 0 0
BITMAP
03E000
07F000
07F000
07F000
07E000
03E000
03E000
03C000
41C300
F1CF80
FDBF80
FFFF80
FFFF80
FC9F80
F08700
408000
008000
408000
F08700
FC9F80
FFFF80
FFFF80
FD9F80
F1C700
41C000
03C000
03E000
03E000
07E000
07F000
07F000
07F000
ENDCHAR
STARTCHAR 2022
ENCODING 8226
SWIDTH 447 0
DWIDTH 17 0
BBX 13 14 2 4
BITMAP
3F80
3FE0
7FF0
FFF8
FFF8
FFF8
FFF8
FFF8
FFF8
FFF8
FFF0
7FF0
3FE0
0FC0
ENDCHAR
STARTCHAR 2026
ENCODING 8230
SWIDTH 868 0
DWIDTH 33 0
BBX 28 9 2 0
BITMAP
38000000
7C010000
7F038000
FF87C0E0
FF8FE3F0
FF0FE3F0
FE0FE1F0
3E07C1F0
1C0380C0
ENDCHAR
STARTCHAR 2030
ENCODING 8240
SWIDTH 1368 0
DWIDTH 52 0
BBX 47 33 2 -1
BITMAP
000020000000
000060000000
0FE060000000
3EF060000000
3C7840000000
7C7C40000000
7C7C40000000
FC7CC0000000
FC7EC0000000
FC7EC0000000
FC7C80000000
FC7C80000000
FC7980000000
7C7980000000
7C7980000000
7CF101E003C0
3FF10FF01FE0
1F811E783CF0
00031C7C3C78
00033C7C7C78
00033C7C7C7C
00027C7E7C7C
00027C7EFC7C
00067C7EFC7C
0006FC7FFC7E
00067C7EFC7C
00047C7CFC7C
00047C7CFC78
00043C787C78
000C3E783CF0
000C1FF01FE0
000C0F800F00
000800000000
ENDCHAR
STARTCHAR 2044
ENCODING 8260
SWIDTH 289 0
DWIDTH 11 0
BBX 7 33 2 -1
BITMAP
06
06
06
04
04
04
0C
0C
0C
08
08
18
18
18
10
10
10
30
30
30
20
20
60
60
60
40
40
40
C0
C0
C0
80
80
ENDCHAR
STARTCHAR 20AC
ENCODING 8364
SWIDTH 789 0
DWIDTH 30 0
BBX 32 30 -2 0
BITMAP
0001FF00
0007FFC0
001FFFF0
007FC1FC
00FF007C
01FE007E
03FC007F
07F8007F
07F8007E
07F8007E
0FF8007C
FFFFF000
FFFFF000
0FF80000
0FF80000
0FF80000
FFFFF000
FFFFF000
0FF80000
0FF80000
07F80000
07F80006
07FC000F
03FC000F
01FE001E
00FF003C
007FC1FC
001FFFF0
0007FFC0
0001FF00
ENDCHAR
STARTCHAR 2116
ENCODING 8470
SWIDTH 1236 0
DWIDTH 47 0
BBX 44 30 2 0
BITMAP
FFC00FF80000
7FE007F00000
3FF003E07E00
1FF003E1FF80
1FF803E3E780
1FFC03E3E7C0
1FFC01E7C7E0
1FFE01E7C7E0
1FFE01EFC7F0
1DFF01EFC7F0
1DFF81EFC7F0
1CFF81E7C7E0
1C7FC1E7E7C0
1C7FC1E3E7C0
1C3FE1E1FF80
1C3FF1E0FF00
1C1FF1E03C00
1C0FF9E00000
1C0FF8E00000
1E07FCE00000
1E07FEE3FFC0
1E03FEE3FFC0
1E01FFE00000
1E01FFE00000
1E00FFE00000
1E00FFE00000
1E007FE00000
3F003FE00000
7F803FE00000
FFC01FE00000
ENDCHAR
STARTCHAR 2212
ENCODING 8722
SWIDTH 552 0
DWIDTH 21 0
BBX 18 3 2 11
BITMAP
FFFFC0
FFFFC0
FFFFC0
ENDCHAR
STARTCHAR 2248
ENCODING 8776
SWIDTH 842 0
DWIDTH 32 0
BBX 16 14 8 6
BITMAP
0E00
1F07
3F8F
7FFE
F1FC
E0F8
0000
0000
0F02
1F87
3FDE
7BFC
F1F8
40F0
ENDCHAR
STARTCHAR 2260
ENCODING 8800
SWIDTH 526 0
DWIDTH 20 0
BBX 18 19 0 2
BITMAP
000E00
001E00
001C00
001C00
003800
FFFFC0
FFFFC0
FFFFC0
00E000
00E000
01C000
FFFFC0
FFFFC0
FFFFC0
070000
070000
0E0000
0E0000
1C0000
ENDCHAR
STARTCHAR 2264
ENCODING 8804
SWIDTH 526 0
DWIDTH 20 0
BBX 18 26 2 0
BITMAP
000200
000E00
001F00
007E00
00FC00
01F000
07E000
0F8000
3F0000
7C0000
700000
780000
7E0000
1F8000
0FC000
03F000
01F800
007E00
003F00
000F00
000600
000000
000000
FFFFC0
FFFFC0
FFFFC0
ENDCHAR
STARTCHAR 2265
ENCODING 8805
SWIDTH 526 0
DWIDTH 20 0
BBX 18 25 0 1
BITMAP
380000
3C0000
3F0000
1F8000
07E000
01F000
00FC00
003E00
001F80
000780
000780
001F80
007E00
00FC00
03F000
07E000
1F8000
3F0000
3C0000
180000
000000
000000
FFFFC0
FFFFC0
FFFFC0
ENDCHAR
STARTCHAR 25CA
ENCODING 9674
SWIDTH 552 0
DWIDTH 21 0
BBX 18 30 2 0
BITMAP
01C000
03E000
03F000
077000
077800
0E3800
1E3C00
1C1C00
3C1E00
380F00
780F00
700780
F00780
E003C0
E003C0
E003C0
E003C0
F00780
700780
780F00
380F00
3C1E00
1C1C00
1E3C00
0E3800
077800
077000
03F000
03E000
01C000
ENDCHAR
STARTCHAR FB00
ENCODING 64256
SWIDTH 868 0
DWIDTH 33 0
BBX 33 32 2 0
BITMAP
0010002000
01FE03FC00
07FF0FFF00
0FCF9F9F00
0F9F9F3F00
1F9FBF3F80
1FBFFF7F80
1F8FBF1F00
1F873F0E00
1F803F8000
1FC03F8000
FFFFFFFC00
FFFFFFFC00
FFFFFFFC00
FFE0FFC000
3FC03F8000
1FC03F8000
1FC03F8000
1FC03F8000
1FC03F8000
1FC03F8000
1FC03F8000
1FC03F8000
1FC03F8000
1FC03F8000
1FC03F8000
1FC03F8000
1FC03F8000
1FC03F8000
3FE07FC000
7FF0FFE000
FFF9FFF000
ENDCHAR
STARTCHAR FB01
ENCODING 64257
SWIDTH 842 0
DWIDTH 32 0
BBX 28 32 2 0
BITMAP
00040000
01FF8000
07FFC000
0FC7C000
0F87E000
1F8FE000
1F8FE000
1F87C000
1F818000
1F800000
1FC00000
FFFFFF80
FFFFFF80
FFFFFF80
FFE03F80
3FC03F80
1FC03F80
1FC03F80
1FC03F80
1FC03F80
1FC03F80
1FC03F80
1FC03F80
1FC03F80
1FC03F80
1FC03F80
1FC03F80
1FC03F80
1FC03F80
3FE07FC0
7FF0FFE0
FFF9FFF0
ENDCHAR
STARTCHAR FB02
ENCODING 64258
SWIDTH 842 0
DWIDTH 32 0
BBX 28 32 2 0
BITMAP
00100000
01FE0780
07FF3F80
0FCFFF80
0F9FFF80
1F9FFF80
1FBFFF80
1F8FBF80
1F873F80
1F803F80
1FC03F80
FFFE3F80
FFFE3F80
FFFE3F80
FFE03F80
3FC03F80
1FC03F80
1FC03F80
1FC03F80
1FC03F80
1FC03F80
1FC03F80
1FC03F80
1FC03F80
1FC03F80
1FC03F80
1FC03F80
1FC03F80
1FC03F80
3FE07FC0
7FF0FFE0
FFF9FFF0
ENDCHAR
STARTCHAR FB03
ENCODING 64259
SWIDTH 1236 0
DWIDTH 47 0
BBX 43 32 2 0
BITMAP
001000080000
01FE01FF0000
07FF0FFF8000
0FCF9F8FC000
0F9F9F0FC000
1F9FBF1FC000
1FBFFF1FC000
1F8FBF0F8000
1F873F030000
1F803F800000
1FC03F800000
FFFFFFFFFF80
FFFFFFFFFF80
FFFFFFFFFF80
FFE0FFC07F80
3FC03F807F80
1FC03F807F80
1FC03F807F80
1FC03F807F80
1FC03F807F80
1FC03F807F80
1FC03F807F80
1FC03F807F80
1FC03F807F80
1FC03F807F80
1FC03F807F80
1FC03F807F80
1FC03F807F80
1FC03F807F80
3FE07FC0FF80
7FF0FFE1FFC0
FFF9FFF3FFE0
ENDCHAR
STARTCHAR FB04
ENCODING 64260
SWIDTH 1236 0
DWIDTH 47 0
BBX 43 32 2 0
BITMAP
001000200080
01FE03FC0780
07FF0FFF7F80
0FCF9F9FFF80
0F9F9F3FFF80
1F9FBF3FFF80
1FBFFF7FFF80
1F8FBF1F7F80
1F873F0E7F80
1F803F807F80
1FC03F807F80
FFFFFFFC7F80
FFFFFFFC7F80
FFFFFFFC7F80
FFE0FFC07F80
3FC03F807F80
1FC03F807F80
1FC03F807F80
1FC03F807F80
1FC03F807F80
1FC03F807F80
1FC03F807F80
1FC03F807F80
1FC03F807F80
1FC03F807F80
1FC03F807F80
1FC03F807F80
1FC03F807F80
1FC03F807F80
3FE07FC0FF80
7FF0FFE1FFC0
FFF9FFF3FFE0
ENDCHAR
ENDFONT
